<?xml version="1.0" encoding="UTF-8"?>
<svg id="Layer_2" data-name="Layer 2" xmlns="http://www.w3.org/2000/svg" viewBox="0 0 25 25">
  <defs>
    <style>
      .cls-1 {
        fill: #87d88b;
      }

      .cls-2 {
        fill: none;
        stroke: #fff;
        stroke-miterlimit: 10;
        stroke-width: 3px;
      }

      .cls-3 {
        fill: #5e9c76;
      }
    </style>
  </defs>
  <g id="Layer_1-2" data-name="Layer 1">
    <g>
      <path class="cls-1" d="M12.5,24.67C5.79,24.67,.33,19.21,.33,12.5S5.79,.33,12.5,.33s12.17,5.46,12.17,12.17-5.46,12.17-12.17,12.17Z"/>
      <path class="cls-3" d="M12.5,.66c6.51,0,11.84,5.33,11.84,11.84s-5.33,11.84-11.84,11.84S.66,19.01,.66,12.5,5.99,.66,12.5,.66m0-.66C5.59,0,0,5.59,0,12.5s5.59,12.5,12.5,12.5,12.5-5.59,12.5-12.5S19.41,0,12.5,0h0Z"/>
      <path class="cls-2" d="M6.71,12.57l3.82,3.82L19.21,7.7"/>
    </g>
  </g>
</svg>