<?xml version="1.0" encoding="UTF-8"?>
<svg id="Layer_2" data-name="Layer 2" xmlns="http://www.w3.org/2000/svg" viewBox="0 0 316 168">
  <defs>
    <style>
      .cls-1 {
        opacity: .5;
      }

      .cls-2 {
        fill: #fff;
        opacity: .26;
      }

      .cls-3 {
        fill: #7c7c7c;
      }

      .cls-4 {
        fill: #6b6b6b;
      }

      .cls-5 {
        fill: #898989;
      }

      .cls-6 {
        fill: #f9f9f9;
      }

      .cls-7 {
        fill: #5e7998;
      }

      .cls-8 {
        fill: #757575;
      }

      .cls-9 {
        fill: #606060;
      }

      .cls-10 {
        fill-rule: evenodd;
      }
    </style>
  </defs>
  <g id="Layer_3" data-name="Layer 3">
    <g>
      <rect class="cls-6" width="316" height="168"/>
      <g>
        <path class="cls-10" d="M298.04,110.71c.69-1.41,1.36-2.83,2.09-4.23,.17-.33,.51-.6,.83-.83,.68-.48,.94-.44,1.76,.18,.33-.4,.67-.81,1.01-1.22,.08,.04,.15,.08,.23,.12-.05,.27-.12,.53-.15,.79-.12,.95-.25,1.9-.31,2.86-.01,.24,.21,.64,.42,.72,.21,.08,.62-.05,.81-.23,.47-.44,.86-.95,1.28-1.44,0,0-.04-.01-.03,0-.09,.24-.14,.5-.27,.73-.98,1.74-1.4,1.9-3.44,1.25-.31,.67-.64,1.36-.96,2.06-.24,.54-.5,1.06-1.2,1.04-.67-.03-1.17-.35-1.37-1.02-.12-.39-.21-.78-.73-.78,0,0,.03,.02,.03,.02Zm3.57-4.31c-1.66,.46-2.25,3.16-1.14,5.08,.89-.86,1.22-2,1.73-3.04,.34-.7-.41-1-.43-1.55,0-.17-.1-.33-.15-.49Z"/>
        <path class="cls-10" d="M296.98,74.4c.65,1.82-.6,3.64-.12,5.72,.45-.36,.78-.6,1.07-.88,.27-.26,.5-.55,.9-.71-.34,.51-.69,1-1,1.52-.46,.76-1.23,.82-1.96,.81-.26,0-.66-.43-.74-.73-.28-1.07-.61-2.15,.07-3.24,.29-.47,.38-1.07,.56-1.61,.17-.55,.46-.94,1.23-.89Z"/>
        <path class="cls-10" d="M299.71,76.92c-.6-3.79,.21-5.24,3.05-5.49-.01,1.2-.54,2.19-1.17,3.14-.39,.59-.69,1.21-.37,2,.85-.14,1.14-.84,1.52-1.37,.4-.55,.7-1.17,1.09-1.74-.23,1.34-1.05,2.36-1.78,3.42-.18,.25-.69,.39-1.04,.38-.46-.01-.91-.23-1.31-.34Zm2.78-4.96c-1.27,.27-1.52,.91-1.09,2.47,.42-.94,.75-1.7,1.09-2.47Z"/>
        <path class="cls-10" d="M296.35,68.67c-.33,1-.65,1.98-.96,2.91-.32-.55-.56-2.38-.32-2.84,.27-.52,.67-.45,1.29-.07Z"/>
        <g class="cls-1">
          <g>
            <rect class="cls-7" x="10" y="75" width="118.4" height=".84"/>
            <rect class="cls-7" x="10.88" y="65.16" width=".5" height="21.36"/>
            <rect class="cls-7" x="10.2" y="74.05" width=".5" height="3.58"/>
            <rect class="cls-7" x="11.55" y="68.74" width=".5" height="13.81"/>
            <rect class="cls-7" x="12.23" y="69.63" width=".5" height="11.57"/>
            <rect class="cls-7" x="12.91" y="60.79" width=".5" height="42.22"/>
            <rect class="cls-7" x="13.58" y="56.27" width=".5" height="47.08"/>
            <rect class="cls-7" x="14.26" y="63.82" width=".5" height="22.7"/>
            <rect class="cls-7" x="14.94" y="63.47" width=".5" height="20.86"/>
            <rect class="cls-7" x="15.61" y="58.76" width=".5" height="47.08"/>
            <rect class="cls-7" x="16.29" y="66.3" width=".5" height="22.7"/>
            <rect class="cls-7" x="16.97" y="60.29" width=".5" height="30.05"/>
            <rect class="cls-7" x="17.65" y="60.34" width=".5" height="30.05"/>
            <rect class="cls-7" x="18.32" y="64.96" width=".5" height="25.43"/>
            <rect class="cls-7" x="19" y="68.59" width=".5" height="17.78"/>
            <rect class="cls-7" x="19.68" y="71.07" width=".5" height="8.99"/>
            <rect class="cls-7" x="20.35" y="71.72" width=".5" height="8.34"/>
            <rect class="cls-7" x="21.03" y="73.9" width=".5" height="3.58"/>
            <rect class="cls-7" x="21.71" y="72.56" width=".5" height="5.71"/>
            <rect class="cls-7" x="22.39" y="71.92" width=".5" height="6.46"/>
            <rect class="cls-7" x="23.06" y="73.51" width=".5" height="3.58"/>
            <rect class="cls-7" x="26.18" y="64.72" width=".5" height="21.36"/>
            <rect class="cls-7" x="26.77" y="68.29" width=".5" height="13.81"/>
            <rect class="cls-7" x="27.35" y="60.34" width=".5" height="42.22"/>
            <rect class="cls-7" x="27.94" y="55.82" width=".5" height="47.08"/>
            <rect class="cls-7" x="28.53" y="63.37" width=".5" height="22.7"/>
            <rect class="cls-7" x="29.11" y="63.03" width=".5" height="20.86"/>
            <rect class="cls-7" x="29.7" y="69.43" width=".5" height="12.17"/>
            <rect class="cls-7" x="25.6" y="73.75" width=".5" height="3.58"/>
            <rect class="cls-7" x="30.29" y="70.33" width=".5" height="10.23"/>
            <rect class="cls-7" x="30.87" y="69.53" width=".5" height="9.29"/>
            <rect class="cls-7" x="31.46" y="65.01" width=".5" height="24.83"/>
            <rect class="cls-7" x="32.04" y="57.51" width=".5" height="35.06"/>
            <rect class="cls-7" x="32.63" y="66.01" width=".5" height="26.57"/>
            <rect class="cls-7" x="33.22" y="65.46" width=".5" height="22.75"/>
            <rect class="cls-7" x="33.8" y="68.19" width=".5" height="16.44"/>
            <rect class="cls-7" x="34.39" y="71.17" width=".5" height="8.19"/>
            <rect class="cls-7" x="34.98" y="69.53" width=".5" height="11.47"/>
            <rect class="cls-7" x="35.56" y="69.04" width=".5" height="13.26"/>
            <rect class="cls-7" x="36.15" y="66.35" width=".5" height="19.07"/>
            <rect class="cls-7" x="36.73" y="61.09" width=".5" height="29.65"/>
            <rect class="cls-7" x="37.32" y="69.43" width=".5" height="12.96"/>
            <rect class="cls-7" x="37.91" y="71.67" width=".5" height="7.25"/>
            <rect class="cls-7" x="38.49" y="72.41" width=".5" height="5.51"/>
            <rect class="cls-7" x="39.08" y="73.16" width=".5" height="3.77"/>
            <rect class="cls-7" x="39.67" y="66.85" width=".5" height="17.63"/>
            <rect class="cls-7" x="40.25" y="70.77" width=".5" height="11.22"/>
            <rect class="cls-7" x="40.84" y="70.77" width=".5" height="11.92"/>
            <rect class="cls-7" x="41.42" y="71.22" width=".5" height="9.04"/>
            <rect class="cls-7" x="42.01" y="63.77" width=".5" height="27.86"/>
            <rect class="cls-7" x="42.6" y="72.61" width=".5" height="9.83"/>
            <rect class="cls-7" x="43.18" y="73.36" width=".5" height="4.37"/>
            <rect class="cls-7" x="43.77" y="61.49" width=".5" height="28.81"/>
            <rect class="cls-7" x="44.36" y="72.61" width=".5" height="6.51"/>
            <rect class="cls-7" x="44.94" y="72.61" width=".5" height="7.4"/>
            <rect class="cls-7" x="45.53" y="60.05" width=".5" height="34.32"/>
            <rect class="cls-7" x="46.11" y="58.8" width=".5" height="32.43"/>
            <rect class="cls-7" x="46.7" y="72.96" width=".5" height="6.85"/>
            <rect class="cls-7" x="47.29" y="68.54" width=".5" height="14.15"/>
            <rect class="cls-7" x="47.87" y="68.54" width=".5" height="14.5"/>
            <rect class="cls-7" x="48.46" y="70.72" width=".5" height="9.49"/>
            <rect class="cls-7" x="49.05" y="71.17" width=".5" height="8.54"/>
            <rect class="cls-7" x="49.63" y="68.99" width=".5" height="15.1"/>
            <rect class="cls-7" x="50.22" y="69.43" width=".5" height="11.62"/>
            <rect class="cls-7" x="50.8" y="69.38" width=".5" height="11.62"/>
            <rect class="cls-7" x="51.39" y="73.75" width=".5" height="3.38"/>
            <rect class="cls-7" x="51.98" y="69.43" width=".5" height="11.62"/>
            <rect class="cls-7" x="52.56" y="72.56" width=".5" height="7.95"/>
            <rect class="cls-7" x="53.15" y="73.7" width=".5" height="3.38"/>
            <rect class="cls-7" x="53.74" y="67.7" width=".5" height="16.94"/>
            <rect class="cls-7" x="54.32" y="62.33" width=".5" height="27.96"/>
            <rect class="cls-7" x="54.91" y="65.91" width=".5" height="13.41"/>
            <rect class="cls-7" x="55.49" y="74.3" width=".5" height="3.38"/>
            <rect class="cls-7" x="60.01" y="64.52" width=".5" height="21.36"/>
            <rect class="cls-7" x="60.61" y="62.83" width=".5" height="30.79"/>
            <rect class="cls-7" x="61.21" y="47.43" width=".5" height="60.54"/>
            <rect class="cls-7" x="61.8" y="61.24" width=".5" height="37.55"/>
            <rect class="cls-7" x="62.4" y="70.72" width=".5" height="12.52"/>
            <rect class="cls-7" x="62.99" y="65.31" width=".5" height="23.29"/>
            <rect class="cls-7" x="63.64" y="71.17" width=".5" height="9.29"/>
            <rect class="cls-7" x="59.42" y="72.61" width=".5" height="5.76"/>
            <rect class="cls-7" x="64.24" y="68.49" width=".5" height="13.86"/>
            <rect class="cls-7" x="64.83" y="67.15" width=".5" height="17.53"/>
            <rect class="cls-7" x="65.43" y="56.52" width=".5" height="38.69"/>
            <rect class="cls-7" x="66.02" y="55.87" width=".5" height="40.73"/>
            <rect class="cls-7" x="66.62" y="68.99" width=".5" height="14.11"/>
            <rect class="cls-7" x="67.21" y="71.07" width=".5" height="9.54"/>
            <rect class="cls-7" x="67.81" y="73.51" width=".5" height="3.38"/>
            <rect class="cls-7" x="68.41" y="70.58" width=".5" height="9.54"/>
            <rect class="cls-7" x="69" y="71.32" width=".5" height="9.19"/>
            <rect class="cls-7" x="70.79" y="70.77" width=".5" height="10.28"/>
            <rect class="cls-7" x="70.19" y="71.52" width=".5" height="9.19"/>
            <rect class="cls-7" x="69.6" y="72.61" width=".5" height="5.36"/>
            <rect class="cls-7" x="71.39" y="66.35" width=".5" height="19.92"/>
            <rect class="cls-7" x="72.03" y="70.82" width=".5" height="9.49"/>
            <rect class="cls-7" x="72.63" y="57.07" width=".5" height="37.25"/>
            <rect class="cls-7" x="73.22" y="65.51" width=".5" height="18.82"/>
            <rect class="cls-7" x="73.82" y="60.99" width=".5" height="27.27"/>
            <rect class="cls-7" x="74.42" y="63.23" width=".5" height="27.22"/>
            <rect class="cls-7" x="75.01" y="70.63" width=".5" height="10.28"/>
            <rect class="cls-7" x="75.61" y="70.23" width=".5" height="10.28"/>
            <rect class="cls-7" x="76.2" y="74.35" width=".5" height="3.38"/>
            <rect class="cls-7" x="76.8" y="68.54" width=".5" height="18.48"/>
            <rect class="cls-7" x="77.4" y="65.06" width=".5" height="26.57"/>
            <rect class="cls-7" x="77.99" y="69.04" width=".5" height="8"/>
            <rect class="cls-7" x="78.59" y="71.27" width=".5" height="8.64"/>
            <rect class="cls-7" x="79.18" y="73.01" width=".5" height="5.41"/>
            <rect class="cls-7" x="79.83" y="58.76" width=".5" height="33.87"/>
            <rect class="cls-7" x="80.43" y="52.7" width=".5" height="44.3"/>
            <rect class="cls-7" x="81.02" y="60.49" width=".5" height="27.32"/>
            <rect class="cls-7" x="81.62" y="73.85" width=".5" height="4.02"/>
            <rect class="cls-7" x="82.21" y="74.15" width=".5" height="2.78"/>
            <rect class="cls-7" x="82.81" y="72.41" width=".5" height="6.56"/>
            <rect class="cls-7" x="83.41" y="73.36" width=".5" height="4.02"/>
            <rect class="cls-7" x="89.02" y="69.93" width=".5" height="10.58"/>
            <rect class="cls-7" x="89.61" y="66.01" width=".5" height="19.72"/>
            <rect class="cls-7" x="90.21" y="59" width=".5" height="31.94"/>
            <rect class="cls-7" x="90.81" y="69.58" width=".5" height="23.54"/>
            <rect class="cls-7" x="91.4" y="70.33" width=".5" height="13.16"/>
            <rect class="cls-7" x="92" y="64.27" width=".5" height="21.85"/>
            <rect class="cls-7" x="92.64" y="63.57" width=".5" height="27.22"/>
            <rect class="cls-7" x="88.42" y="72.21" width=".5" height="5.76"/>
            <rect class="cls-7" x="93.24" y="65.56" width=".5" height="20.21"/>
            <rect class="cls-7" x="93.84" y="70.43" width=".5" height="10.83"/>
            <rect class="cls-7" x="94.43" y="52.5" width=".5" height="43.66"/>
            <rect class="cls-7" x="95.03" y="54.09" width=".5" height="39.78"/>
            <rect class="cls-7" x="95.62" y="63.52" width=".5" height="25.28"/>
            <rect class="cls-7" x="96.22" y="62.43" width=".5" height="27.07"/>
            <rect class="cls-7" x="96.82" y="73.11" width=".5" height="9.34"/>
            <rect class="cls-7" x="97.41" y="61.19" width=".5" height="23.79"/>
            <rect class="cls-7" x="98.01" y="63.87" width=".5" height="29.6"/>
            <rect class="cls-7" x="99.8" y="72.76" width=".5" height="5.81"/>
            <rect class="cls-7" x="99.2" y="70.77" width=".5" height="12.07"/>
            <rect class="cls-7" x="98.6" y="62.08" width=".5" height="35.51"/>
            <rect class="cls-7" x="100.39" y="70.77" width=".5" height="7.3"/>
            <rect class="cls-7" x="101.04" y="68.14" width=".5" height="15.64"/>
            <rect class="cls-7" x="101.63" y="70.77" width=".5" height="10.28"/>
            <rect class="cls-7" x="102.23" y="67.99" width=".5" height="15.94"/>
            <rect class="cls-7" x="102.83" y="70.38" width=".5" height="7.6"/>
            <rect class="cls-7" x="103.42" y="63.62" width=".5" height="22.3"/>
            <rect class="cls-7" x="104.02" y="71.62" width=".5" height="7.7"/>
            <rect class="cls-7" x="104.61" y="70.48" width=".5" height="8.15"/>
            <rect class="cls-7" x="105.21" y="73.95" width=".5" height="3.38"/>
            <rect class="cls-7" x="105.81" y="55.92" width=".5" height="42.86"/>
            <rect class="cls-7" x="106.4" y="64.67" width=".5" height="24.44"/>
            <rect class="cls-7" x="107" y="70.43" width=".5" height="6.16"/>
            <rect class="cls-7" x="107.59" y="72.51" width=".5" height="7.75"/>
            <rect class="cls-7" x="108.19" y="70.38" width=".5" height="7.65"/>
            <rect class="cls-7" x="108.83" y="74.3" width=".5" height="2.53"/>
            <rect class="cls-7" x="109.43" y="74.55" width=".5" height="1.69"/>
            <rect class="cls-7" x="110.03" y="74.55" width=".5" height="1.99"/>
            <rect class="cls-7" x="110.62" y="73.46" width=".5" height="4.02"/>
            <rect class="cls-7" x="111.22" y="73.75" width=".5" height="2.78"/>
            <rect class="cls-7" x="111.81" y="75.1" width=".5" height="1.29"/>
            <rect class="cls-7" x="112.41" y="74.5" width=".5" height="1.84"/>
            <rect class="cls-7" x="113.55" y="74.45" width=".5" height="2.19"/>
            <rect class="cls-7" x="113.95" y="51.6" width=".5" height="45.44"/>
            <rect class="cls-7" x="114.65" y="40.18" width=".5" height="68.89"/>
            <rect class="cls-7" x="115.24" y="71.27" width=".5" height="7.95"/>
            <rect class="cls-7" x="115.84" y="71.27" width=".5" height="8.44"/>
            <rect class="cls-7" x="116.43" y="68.69" width=".5" height="14.11"/>
            <rect class="cls-7" x="117.08" y="70.82" width=".5" height="9.73"/>
            <rect class="cls-7" x="117.87" y="74.3" width=".5" height="1.84"/>
            <rect class="cls-7" x="118.97" y="68.54" width=".5" height="14.01"/>
            <rect class="cls-7" x="119.56" y="70.48" width=".5" height="9.73"/>
            <rect class="cls-7" x="120.26" y="73.95" width=".5" height="2.83"/>
            <rect class="cls-7" x="120.9" y="63.62" width=".5" height="25.03"/>
            <rect class="cls-7" x="121.6" y="63.08" width=".5" height="27.56"/>
            <rect class="cls-7" x="122.29" y="69.43" width=".5" height="13.01"/>
            <rect class="cls-7" x="122.84" y="59.4" width=".5" height="33.18"/>
            <rect class="cls-7" x="123.54" y="69.33" width=".5" height="14.35"/>
            <rect class="cls-7" x="124.18" y="69.83" width=".5" height="10.28"/>
            <rect class="cls-7" x="124.83" y="71.62" width=".5" height="7.7"/>
            <rect class="cls-7" x="125.47" y="74.1" width=".5" height="2.63"/>
          </g>
        </g>
        <g>
          <g>
            <polygon class="cls-3" points="197.62 137.71 163.58 137.71 129.55 137.71 124.31 150.25 163.58 150.25 202.85 150.25 197.62 137.71"/>
            <path class="cls-9" d="M124.31,150.25h78.54s-2.78-6.67-2.82-6.75c-.03-.08-74.87,4.69-74.87,4.69l-.86,2.06Z"/>
            <polygon class="cls-9" points="187.24 146.47 185.12 137.71 197.62 137.71 202.85 150.25 187.24 146.47"/>
            <path class="cls-2" d="M129.6,144.06c.03,.12,.06,.26,.16,.33,.12,.08,.28,.06,.41,.03,1.04-.26,1.93-.92,2.85-1.47,2.91-1.72,6.35-2.32,9.72-2.52,3.37-.21,6.77-.05,10.13-.42,.38-.04,.86-.21,.84-.59-.02-.38-.53-.49-.91-.49-6.57-.03-13.13-.07-19.7-.1-1.49,0-2.39,.02-3.06,1.46-.54,1.17-.72,2.52-.45,3.78Z"/>
          </g>
          <rect class="cls-3" x="159.88" y="94.95" width="7.41" height="46.11"/>
          <rect class="cls-9" x="164.48" y="94.95" width="1.45" height="42.65"/>
          <path class="cls-9" d="M159.88,96.9v1.49h0s2.75,.35,4.4,1.87c1.65,1.52,3.01,4.63,3.01,4.63v-7.99h-7.41Z"/>
          <rect class="cls-9" x="135.23" y="52.28" width="57.23" height="1.75"/>
          <path class="cls-9" d="M132.18,50h.17v5.65h-.17c-1.56,0-2.83-1.27-2.83-2.83h0c0-1.56,1.27-2.83,2.83-2.83Z"/>
          <path class="cls-9" d="M197.64,50.28h.17v5.65h-.17c-1.56,0-2.83-1.27-2.83-2.83h0c0-1.56,1.27-2.83,2.83-2.83Z" transform="translate(392.63 106.21) rotate(-180)"/>
          <rect class="cls-9" x="141.31" y="22.84" width="44.56" height="66.07" rx="22.28" ry="22.28"/>
          <path class="cls-5" d="M167.57,68.59c-.72,0-1.31-.59-1.31-1.31h0c0-.72,.59-1.31,1.31-1.31h18.29v-1.47h-18.29c-.72,0-1.31-.59-1.31-1.31s.59-1.31,1.31-1.31h18.29v-2.18h-18.29c-.72,0-1.31-.59-1.31-1.31s.59-1.31,1.31-1.31h18.29v-2.19h-18.29c-.72,0-1.31-.59-1.31-1.31s.59-1.31,1.31-1.31h18.29v-2.18h-18.29c-.72,0-1.31-.59-1.31-1.31h0c0-.72,.59-1.31,1.31-1.31h18.29v-2.18h-18.29c-.72,0-1.31-.59-1.31-1.31h0c0-.72,.59-1.31,1.31-1.31h18.29v-2.01c0-7.57-4.72-14.03-11.37-16.62v15.05c0,.72-.59,1.31-1.31,1.31h0c-.72,0-1.31-.59-1.31-1.31v-15.84c-.71-.16-1.44-.27-2.19-.34v16.18c0,.72-.59,1.31-1.31,1.31h0c-.72,0-1.31-.59-1.31-1.31V22.84h-2.18v16.26c0,.72-.59,1.31-1.31,1.31h0c-.72,0-1.31-.59-1.31-1.31V22.84h-2.18v16.26c0,.72-.59,1.31-1.31,1.31s-1.31-.59-1.31-1.31V22.92c-.74,.07-1.47,.18-2.18,.34v15.84c0,.72-.59,1.31-1.31,1.31s-1.31-.59-1.31-1.31v-15.05c-6.65,2.59-11.37,9.05-11.37,16.62v2.01h19.2c.72,0,1.31,.59,1.31,1.31h0c0,.72-.59,1.31-1.31,1.31h-19.2v2.18h19.2c.72,0,1.31,.59,1.31,1.31h0c0,.72-.59,1.31-1.31,1.31h-19.2v2.18h19.2c.72,0,1.31,.59,1.31,1.31s-.59,1.31-1.31,1.31h-19.2v2.19h19.2c.72,0,1.31,.59,1.31,1.31s-.59,1.31-1.31,1.31h-19.2v2.18h19.2c.72,0,1.31,.59,1.31,1.31s-.59,1.31-1.31,1.31h-19.2v1.47h19.2c.72,0,1.31,.59,1.31,1.31h0c0,.72-.59,1.31-1.31,1.31h-19.2v2.5c0,7.57,4.72,14.03,11.37,16.62v-13.73c0-.72,.59-1.31,1.31-1.31s1.31,.59,1.31,1.31v14.52c.71,.16,1.44,.27,2.18,.34v-14.86c0-.72,.59-1.31,1.31-1.31s1.31,.59,1.31,1.31v14.94h2.18v-14.94c0-.72,.59-1.31,1.31-1.31h0c.72,0,1.31,.59,1.31,1.31v14.94h2.18v-14.94c0-.72,.59-1.31,1.31-1.31h0c.72,0,1.31,.59,1.31,1.31v14.86c.74-.07,1.47-.18,2.19-.34v-14.52c0-.72,.59-1.31,1.31-1.31h0c.72,0,1.31,.59,1.31,1.31v13.73c6.65-2.59,11.37-9.05,11.37-16.62v-2.5h-18.29Z"/>
          <g>
            <path class="cls-8" d="M157.47,80.04c-.73-.03-1.46-.09-2.18-.17v8.62c.71,.16,1.44,.27,2.18,.34v-8.79Z"/>
            <path class="cls-8" d="M185.86,47.48v-2.18h-6.78c0,.73,0,1.46-.01,2.18h6.8Z"/>
            <path class="cls-8" d="M185.86,64.5h-7.53c-.08,.49-.18,.98-.29,1.47h7.83v-1.47Z"/>
            <path class="cls-8" d="M162.28,79.81c-.73,.1-1.46,.18-2.18,.22v8.88h2.18v-9.1Z"/>
            <path class="cls-8" d="M148.04,78.37c-1.63-.47-3.24-1.02-4.84-1.59-.32-.11-.7-.29-1.11-.45,1.6,5.22,5.54,9.41,10.58,11.38v-8.22c-1.56-.29-3.11-.67-4.64-1.11Z"/>
            <path class="cls-8" d="M167.08,78.59c-.71,.27-1.44,.5-2.18,.69v9.63h2.18v-10.32Z"/>
            <path class="cls-8" d="M185.86,59.7h-7.05c-.04,.73-.08,1.46-.15,2.18h7.2v-2.18Z"/>
            <path class="cls-8" d="M185.86,68.59h-8.6c-.54,1.47-1.26,2.88-2.18,4.15-.21,.29-.43,.56-.65,.83,.04,.13,.07,.27,.07,.41v13.73c6.65-2.59,11.37-9.05,11.37-16.62v-2.5Z"/>
            <path class="cls-8" d="M176.68,25.07c2.01,5.57,2.35,11.64,2.4,17.6h6.79v-2.01c0-6.71-3.71-12.55-9.18-15.59Z"/>
            <path class="cls-8" d="M169.69,77.4v11.44c.74-.07,1.47-.18,2.19-.34v-12.51c-.69,.52-1.42,1-2.19,1.42Z"/>
            <path class="cls-8" d="M185.86,50.09h-6.83c-.01,.73-.02,1.46-.04,2.18h6.86v-2.18Z"/>
            <path class="cls-8" d="M185.86,54.89h-6.92c0,.41-.02,.81-.03,1.22,0,.32-.01,.65-.02,.97h6.96v-2.18Z"/>
          </g>
          <path class="cls-3" d="M191.04,49.7v35.8c0,4.82-4.44,8.72-9.91,8.72h-35.1c-5.47,0-9.91-3.91-9.91-8.72V49.7c0-.92-.85-1.66-1.89-1.66h0c-1.04,0-1.89,.74-1.89,1.66v38.23c0,5.14,4.73,9.31,10.57,9.31h41.33c5.84,0,10.57-4.17,10.57-9.31V49.7c0-.92-.85-1.66-1.89-1.66h0c-1.04,0-1.89,.74-1.89,1.66Z"/>
          <g>
            <path class="cls-4" d="M134.52,49.24v35.8c0,4.12,3.25,7.58,7.62,8.49-3.54-1.33-6.02-4.42-6.02-8.02V49.7c0-.92-.85-1.66-1.89-1.66-.09,0-.18,0-.27,.02,.34,.3,.56,.72,.56,1.18Z"/>
            <path class="cls-4" d="M192.93,48.04c-.09,0-.18,0-.27,.02,.34,.3,.56,.72,.56,1.18v38.23c0,5.14-4.73,9.31-10.57,9.31h-41.33c-.86,0-1.7-.09-2.5-.26,1.26,.47,2.65,.73,4.11,.73h41.33c5.84,0,10.57-4.17,10.57-9.31V49.7c0-.92-.85-1.66-1.89-1.66Z"/>
          </g>
          <path class="cls-2" d="M148.99,29.54c-1.45,2.02-1.56,4.69-1.59,7.18-.05,4.62-.01,9.24,.12,13.85,.03,1.05,.23,2.35,1.23,2.7,.72,.25,1.54-.18,1.95-.82,.42-.64,.52-1.42,.58-2.18,.27-3.81-.45-7.62-.4-11.43,.02-1.64,.23-3.37,1.21-4.68,1.01-1.35,2.67-2.04,4.31-2.43,2.67-.64,5.45-.66,8.19-.47,.85,.06,1.72,.13,2.56-.04,.84-.18,1.66-.65,2.04-1.42,.64-1.31-.29-2.95-1.6-3.6-1.31-.65-2.84-.57-4.3-.48-4.54,.28-11.25-.4-14.29,3.83Z"/>
          <path class="cls-2" d="M147.04,57.91c.08,1.6,.17,3.2,.25,4.8,.11,2.15,.22,4.3,.33,6.45,.03,.62,.07,1.27,.38,1.81,.7,1.23,2.73,1.27,3.57,.14,.87-1.17,.45-2.81,.08-4.22-.65-2.55-.97-5.19-.93-7.82,.02-1.26-.18-3.06-1.7-3.43-1.49-.36-2.04,1.09-1.98,2.28Z"/>
        </g>
        <path class="cls-10" d="M279.78,83.45c.86-.28,1.13-.83,1.19-1.77,.08-1.21,.47-2.41,.82-3.59,.29-1.01,.97-1.66,2.19-1.69,.71,.41,.68,1.28,1.16,2-.37,.14-.59,.22-.85,.32-.18-.39-.34-.73-.63-1.34-.73,1.64-1.06,3.1-1.11,4.72,.23,.04,.47,.07,.72,.11,0,0-.02,.08-.05,.1-.59,.24-.84,.69-.94,1.31-.51,3.26-1.04,6.51-1.57,9.76-.31,1.91-.68,3.81-.91,5.73-.16,1.31-.1,2.65-.05,4.01,1.44-1.79,2.58-3.79,4.5-5.16-.2,1.71-.88,3.35-.39,5.26,.97-.78,1.34-1.74,1.88-2.56,.54-.81,.95-1.65,.98-2.69,.04-1.26,1.03-2,1.88-2.73,.26-.22,.84-.05,1.41-.07,.15-.75,.32-1.55,.47-2.36,.33-1.81,.62-3.64,.97-5.45,.19-1.01,.43-1.18,1.6-1.28-.08,.54-.13,1.05-.24,1.55-.34,1.59-.78,3.16-1.02,4.76-.25,1.69-.36,3.4-.42,5.11-.02,.66,.25,1.34,.38,2.02,1.33-.12,1.53-1.29,2.38-1.77-.33,.6-.63,1.22-.99,1.8-.72,1.15-1.68,1.22-2.57,.23-.14-.16-.25-.35-.47-.68-.38,.55-.66,1.02-1,1.46-.81,1.04-1.86,1.03-2.8-.14-.52,.96-1.01,1.87-1.51,2.77-.44,.81-1.01,1.05-1.81,.77-.61-.21-.86-.77-.74-1.64,.09-.6,.2-1.19,.2-1.83-1.38,1.18-2.13,2.72-2.7,4.38-.2,.58-.42,1.16-.65,1.72-.25,.59-.68,.77-1.36,.42-.09-.39-.2-.84-.34-1.41-.96,.87-1.88,1.64-2.37,2.81-.14,.32-.31,.63-.48,.94-.49,.88-1,1.01-1.81,.44-.21-.15-.38-.35-.6-.56-.82,.1-1.05,.83-1.44,1.38-.82,1.14-1.46,1.39-2.82,1.04-.38-1.05,.67-2.26-.37-3.28,.1,.03,.14,.04,.17,.06,.03,.03,.05,.08,.09,.1,.1,.07,.21,.13,.33,.2,.1-.12,.2-.21,.26-.32,.42-.82,.81-1.66,1.27-2.46,.28-.49,.68-.92,1.04-1.35,.68-.83,1.51-.99,2.43-.48,.63-.45,.79-1.06,.87-1.74,.41-3.63,.83-7.25,1.25-10.87,.18-1.57,.52-3.14,.49-4.71-.03-1.82,.65-3.49,.78-5.27,.1-1.38,1.09-2.23,2.43-2.37,.62-.06,1.14,.22,1.44,.75,.11,.2,.1,.64-.05,.78-.13,.13-.53,.06-.78-.02-.17-.05-.3-.26-.46-.41-1.23,.96-1.07,2.31-1.36,3.52,.86,.49,1.42-.42,2.14-.33q-2.5,1.21-2.98,3.9c-.02,.09-.03,.17-.05,.26-.71,4.73-1.43,9.45-2.14,14.18-.05,.3-.19,.75-.05,.89,.48,.46,.08,.76-.07,1.14-.57,1.38-.95,2.8-.83,4.34,.88-.05,1.22-.63,1.53-1.2,1.03-1.88,1.93-3.84,3.09-5.64,.7-1.09,1.01-2.21,1.14-3.43,.48-4.49,.93-8.99,1.38-13.48,.03-.33-.04-.66-.06-1.02-.41,.03-.71,.05-1.01,.07Zm-10.43,26.39c-.59,.26-.5,.69-.27,1.32,.41-.32,.72-.56,1.15-.89-.37-.2-.58-.32-.79-.44,.48-.17,1.15-.19,1.42-.53,1.12-1.41,1.63-3.02,1.12-5.1-.5,.4-1,.61-1.18,.97-.61,1.29-1.14,2.63-1.65,3.97-.07,.18,.13,.46,.2,.69Zm18.6-9.36c1.46-1.05,2.21-2.76,1.92-4.06-.06-.26-.29-.59-.51-.66-.2-.06-.56,.14-.73,.33-.22,.25-.43,.59-.46,.92-.11,1.07-.14,2.15-.21,3.48Z"/>
        <path class="cls-10" d="M221.35,64.52c-.31-.49,0-.65,.39-.87,1.35-.74,2.69-1.5,4-2.31,.55-.33,1.01-.79,1.73-1.36,.06,.92,.1,1.62,.16,2.51,1.18-1.35,1.78-3,3.54-3.97-.06,.74-.1,1.26-.15,1.99,1.4-1.42,2.13-3.25,3.83-4.11-.07,1.18-.19,2.24-.18,3.31,0,.37,.25,.92,.54,1.06,.5,.24,.91-.2,1.14-.65,.2-.38,.35-.79,.43-1.21,.19-.99,.27-2,.49-2.98,.22-1,1.16-1.58,2.41-1.49-.4,.93-.78,1.82-1.15,2.71,.07,.05,.13,.09,.2,.14,.16-.15,.34-.27,.46-.44,.55-.79,1.09-1.6,1.63-2.4,.22-.32,.38-.72,.99-.58,.03,.38,.06,.78,.11,1.38,1.18-1.21,1.6-2.84,3-3.66-.37,1.47-.73,2.88-.35,4.57,.45-.15,.93-.18,1.18-.43,.44-.45,.88-.99,1.07-1.58,.3-.91,.36-1.89,.59-2.83,.18-.75,.6-1.38,1.33-1.71,.24-.11,.7-.14,.83,0,.18,.21,.3,.66,.2,.91-.3,.73-.7,1.42-1.1,2.1-.36,.59-.45,1.12,.18,1.69,.2-.16,.43-.29,.58-.47,1.65-2.12,3.04-4.41,4.21-6.83,.2-.42,.3-.96,1.09-.85,.09,.79,.18,1.6,.28,2.54,1.18-.73,1.08-2.46,2.57-2.96,.25,1.49-.58,2.88,.1,4.37,1.41-.87,1.83-2.48,2.86-3.59-.49,1.52-1.33,2.84-2.3,4.07-.45,.58-1.47,.5-1.99-.08-.23-.26-.4-.58-.63-.92-.74,.59-.79,1.44-1.02,2.22-.12,.4-.28,.83-.54,1.14-.14,.17-.56,.24-.81,.17-.16-.04-.31-.42-.31-.65,0-.57,.09-1.14,.15-1.71,.04-.47,.08-.95,.13-1.54-.65,.21-.79,.69-1.02,1.07-.79,1.27-1.53,2.56-2.32,3.83-.73,1.18-.75,1.16-2.13,.9-.17-.03-.34-.05-.55-.08-.3,.34-.57,.68-.88,.98-.28,.27-.59,.54-.93,.72-1.11,.56-1.96,.14-2.56-1.31-.86,1.01-.93,2.26-1.31,3.35q-1.07,.13-1.48-1.77c-.78,.94-1.3,1.93-1.7,2.97-.25,.66-.42,1.25-1.34,1.1-.2-.03-.48,.18-.67,.34-.56,.48-1.19,.52-1.86,.38-.82-.16-1.37-.57-1.44-1.47-.02-.29-.12-.57-.21-1.03-.69,.75-1.1,1.44-1.36,2.24-.15,.46-.27,.93-.4,1.39-.1,.37-.05,.84-.62,.85-.47,.01-1.02-.46-1.09-.97-.05-.38-.02-.77-.03-1.36-.92,.86-1.18,1.87-1.59,2.8-.23,.52-.4,1.07-.57,1.62-.23,.71-.69,.67-1.24,.45-.49-1.47,0-2.88,.17-4.48-1.19,.69-2.22,1.28-3.3,1.9,.16,.59,.35,1.12,.43,1.67,.17,1.17-.18,2.26-.68,3.31-.24,.5-.5,.92-1.15,.89-.63-.03-1.1-.24-1.33-.87-.06-.16-.17-.3-.31-.55-.22,.25-.42,.45-.59,.68-.77,1.06-1.48,2.17-2.31,3.18-.72,.88-1.76,.61-2.11-.46-.51-1.56,.19-4.06,1.45-5.09,.37-.3,.8-.75,1.27-.39,.38,.3,.6,.82,.81,1.27,.05,.12-.22,.39-.34,.59-.15-.13-.35-.24-.43-.41-.11-.23-.12-.5-.18-.77-.7-.1-.87,.39-1.06,.81-.5,1.12-.53,3.02,0,4.03,.34-.31,.7-.55,.95-.88,.73-.94,1.44-1.89,2.1-2.87,.31-.46,.5-1.01,.68-1.55,.25-.77,.52-1.51,1.37-1.81-.05,1.35-.51,2.73,.08,4.11,1.05-.8,1.66-2.82,1.16-3.78-.27-.51-.7-.8-1.25-.29Zm28.1-14.41c-.12-.04-.25-.08-.37-.12-.61,.4-.4,1-.18,1.6,.18-.49,.37-.99,.55-1.48Z"/>
        <path class="cls-10" d="M238.9,71.31c-.1,.39-.12,.83-.31,1.17-.38,.67-.57,1.32-.6,2.11-.04,1.22-.27,2.44-.45,3.66-.05,.32-.25,.62-.38,.92-1.08-.44-1.5-1.31-1.16-2.31,.12-.37,.33-.72,.5-1.07,.46-.95,.28-1.9-.03-2.82-.07-.2-.35-.33-.58-.54-.99,1.15-1.65,2.32-1.59,3.83,.1,2.59,.1,5.18,.24,7.77,.11,1.97,.37,3.93,.54,5.89,.16,1.79,.31,3.58,.44,5.38,.07,1,.09,2.01,.11,3.02,0,.36-.07,.73-.59,.63-.05-.07-.15-.15-.14-.2,.25-1.68-.05-3.32-.31-4.97-.15-.95-.07-1.93-.18-2.89-.32-2.92-.71-5.84-1.03-8.77-.23-2.05-.39-4.1-.6-6.3-.67,.4-.82,1.02-1.15,1.49-.87,1.22-1.71,2.44-2,3.97-.14,.72-.62,1.24-1.38,1.41-.53-.43-.2-.83,.06-1.15,1.07-1.33,1.07-2.83,.78-4.38-.02-.12-.1-.22-.21-.45-.75,.81-1.21,1.69-1.3,2.68-.12,1.31-.17,2.63-.1,3.95,.14,2.76,.38,5.52,.58,8.27,.13,1.75,.26,3.5,.4,5.32,.57,.26,1.1,.51,1.63,.75-.02,.07-.04,.14-.05,.21-.36-.07-.72-.13-1.27-.23,.02,1.75,.05,3.47,.07,5.38-.53-.39-.94-.67-1.34-.96l.03,.02c.51-1.51,.18-3.03,.06-4.54-.06-.76-.6-.97-1.44-.96-.62,1.92-1.31,3.81-1.83,5.75-.35,1.3-.51,2.67-.68,4.01-.05,.43,.13,.88,.2,1.33,.11,.02,.22,.05,.33,.07,.24-.38,.48-.77,.72-1.15,.48-.77,.97-1.53,1.45-2.3h-.03c-.51,1.19-1.01,2.4-1.53,3.6-.22,.5-.61,.73-1.17,.64-.58-.1-.8-.53-.81-1.04-.02-.92-.05-1.85,.05-2.76,.3-2.73,.98-5.36,2.14-7.85,.32-.68,.23-1.12-.32-1.61-.49-.44-.93-.94-1.31-1.48-.61-.84-.52-1.44,.35-2,.95-.6,1.96-1.1,3.1-1.73-.09-1.11-.19-2.41-.3-3.71-.15-1.79-.29-3.59-.46-5.38-.03-.32,.08-.96-.64-.52,0,0,.04,.01,.04,.01,.11-.88,.14-1.78,.35-2.64,.08-.33,.55-.57,.92-.94,.25,.43,.41,.71,.64,1.1,.34-.55,.55-1.04,.9-1.41,.3-.33,.74-.7,1.13-.72,.59-.03,.67,.57,.73,1.07,.05,.39,.09,.78,.15,1.32,.26-.25,.49-.41,.64-.62,.79-1.1,1.56-2.2,1.88-3.57,.1-.44,.57-.8,.95-1.3,.34,.41,.54,.64,.75,.89,1.79-2.22,1.99-2.28,3.58-1.02,.29-.43,.57-.85,.85-1.27h-.04Zm-13.6,23.87c.12-.03,.25-.05,.38-.08,.31-.85,.72-1.67,.88-2.55,.08-.42-.23-1.03-.55-1.35-.18-.17-.79,.02-1.17,.16-.31,.12-.58,.38-.85,.59-.55,.42-.62,.97-.22,1.49,.47,.61,1.02,1.16,1.54,1.73Zm11.63-18.58c-.1-.02-.21-.04-.31-.05-.36,.54-.38,1.07,.16,1.89,.06-.79,.1-1.31,.15-1.83Zm-9.64,19.61q-.04-.63-.37-1.03c-.31,.5-.46,.92,.37,1.03Z"/>
        <path class="cls-10" d="M272.79,55.82c.14-.4,.24-.82,.42-1.2,.44-.91,.93-1.79,1.36-2.7,.43-.9,1.14-1.42,2.07-1.64,.39-1.78,.75-3.54,1.18-5.28,.24-.98,.39-1.86,.05-2.91-.35-1.06-.33-2.26-.34-3.39-.02-2.5,.03-5.01,.09-7.51,.02-.61,.12-1.23,.28-1.82,.18-.68,.62-1.11,1.59-1.13,.05,1.64,.09,3.18,.14,4.82,.63-.17,1.12-.3,1.65-.44-.01,.14,0,.25-.03,.26-1.56,.57-1.99,1.77-1.95,3.32,.04,1.53-.06,3.07-.07,4.6,0,.42,.1,.84,.15,1.27,1.27-.3,1.93-1,2.2-2.14,.21-.85,.55-1.67,.83-2.5,.28-.84,.42-1.66,.35-2.58-.06-.85,.19-1.73,.36-2.59,.1-.5,.44-.84,1.18-.9,.08,.4,.21,.8,.23,1.21,.1,1.71,.16,3.42,.27,5.13,.04,.68,.19,1.34,.31,2.13-1.34-.47-1.09-1.99-2.12-2.73-.17,.5-.34,.93-.47,1.38-.43,1.47-.84,2.94-1.25,4.41-.36,1.28-.72,1.5-1.99,1.24-.17-.04-.33-.1-.63-.19-.6,5-.19,9.97-.23,15.05-.77-.08-1.01-.63-1.12-1.21-.15-.82-.2-1.66-.29-2.49-.07-.63-.12-1.27-.18-1.9-.1,0-.2,0-.29,0-.34,1.26-.67,2.52-1.04,3.77-.14,.46-.32,.92-.59,1.31-.14,.21-.53,.41-.76,.36-.19-.04-.44-.42-.46-.66-.07-1.05-.06-2.1-.08-3.24-.32,.32-.61,.61-.89,.9h.03Zm3.47-4.47c-.91,.7-1.21,1.69-1.62,4.8-.05,.36-.23,.79,.45,1.1,.37-2,1.27-3.84,1.17-5.9Z"/>
        <path class="cls-10" d="M253.5,114.93c-.19,.57-.28,.98-.47,1.34-.34,.66-.77,1.28-1.11,1.95-.19,.38-.34,.82-.35,1.24-.02,.45-.04,1.11,.56,1.18,.32,.04,.81-.31,1.03-.63,.93-1.33,1.8-2.71,2.68-4.07,.09-.14,.18-.28,.43-.67,.03,.47,.13,.73,.04,.88-.85,1.44-1.71,2.87-2.61,4.27-.88,1.37-1.71,1.57-3.23,.84-.11-.05-.24-.08-.42-.13-.35,.44-.7,.89-1.07,1.31-.48,.54-1.05,.78-1.77,.5-.65-.25-.97-.75-.97-1.43,0-.7,.03-1.39,.05-2.09-.94,.03-1.44,.49-1.78,1.41-.61,1.6-1.4,3.13-2.12,4.69-.04,.08-.07,.16-.11,.24-.3,.55-.61,1.11-1.39,.96-.59-.11-.89-.68-.84-1.59,.02-.29,.07-.59-.11-1-.21,.34-.47,.66-.63,1.03-.51,1.21-1.01,2.43-1.47,3.67-.19,.52-.44,.88-1.02,.81-.51-.06-.95-.31-1.04-.86-.13-.78-.35-1.59-.24-2.34,.18-1.16,.55-2.3,.97-3.4,.19-.5,.65-.93,1.08-1.29,.7-.59,1.46-.59,2.05,.14,.6-.46,1.09-.83,1.86-1.42-.12,1.87-.22,3.4-.31,4.93,.11,.03,.21,.06,.32,.09,1.36-1.69,2.12-3.7,2.85-5.45-.37-.64-.81-1.06-.83-1.51-.05-.84,.32-1.63,.87-2.29,.29-.34,.68-.31,.91,0,.22,.3,.35,.7,.39,1.07,.04,.37-.07,.75-.14,1.33,1.01-.52,1.87-.96,2.73-1.41,.07,.06,.14,.13,.21,.19-.26,.71-.64,1.4-.76,2.13-.12,.75,.02,1.54,.04,2.34,1.19-.26,2.15-1.3,2.33-2.47,.17-1.09,.35-2.16,.95-3.13,.49-.78,1.08-1.37,2.42-1.36Zm-16.21,12.82c.82-1.19,1.44-2.47,1.83-3.84,.1-.35,0-.79-.11-1.16-.12-.44-.49-.5-.83-.27-.2,.14-.38,.37-.47,.6-.61,1.48-.92,3-.42,4.67Zm15.64-12.1c-.08-.05-.17-.09-.25-.13-.84,.73-.85,.77-.66,1.92,.34-.67,.63-1.23,.91-1.79Zm-7.62,1.32l-.27-.05q-.39,.74,.04,1.5c.09-.59,.16-1.02,.23-1.45Z"/>
        <path class="cls-10" d="M206.15,55.95c-1.3,1.89-1.3,3.79-.79,5.91,1.14-.81,1.03-1.99,1.24-2.99,.21-1.02,.35-2.09-.24-3.13,1.67-1.25,2.72-2.95,3.85-4.72-1.82,.41-4.03,2.16-4.85,3.78-.15-.57-.19-.62,.14-.9,.97-.82,1.96-1.62,2.96-2.4,.34-.27,.75-.46,1.14-.65,.97-.46,1.57-1.15,1.83-2.25,.23-.97,.65-1.93,1.16-2.79,.36-.61,.95-1.14,1.54-1.55,.71-.5,1.04-.37,1.51,.36,.21,.32,.35,.69,.53,1.04-.88,.65-.92-.44-1.4-.54-1.22,.86-1.75,1.84-1.68,3.29,1.05-.61,2.05-1.19,3.05-1.76,.03,.05,.05,.09,.08,.14-.94,.69-1.88,1.38-2.82,2.07-.44,.32-.67,.71-.74,1.31-.57,4.85-.81,9.71-1.06,14.58-.18,3.6-1.06,7.04-2.53,10.32-.79,1.78-2.02,3.18-3.74,4.12-.41,.22-.88,.34-1.38,.41,3.09-.97,4.33-3.44,5.25-6.21,1.07-3.22,1.3-6.53,1.29-9.89,0-3.25,.09-6.5,.18-9.76,.02-.84,.18-1.69,.28-2.53-.09-.03-.19-.06-.28-.09-.55,.77-1.09,1.54-1.64,2.31-.2,.29-.34,.65-.6,.86-1.17,.95-1.36,2.15-1.37,3.6,0,1.33-.46,2.66-.78,3.98-.13,.54-.49,.92-1.16,.84-.61-.08-.92-.41-1.08-.98-.49-1.69-.31-3.31,.47-4.86,.26-.52,.61-.97,1.61-.93Z"/>
        <path class="cls-10" d="M243.42,102.49c-.83,.32-1.28,.87-1.19,1.81,.03,.25,0,.55-.11,.77-1.02,2.13-.87,4.4-.89,6.66,0,.26,.03,.53,.11,.78,.34,1.09,1.13,1.42,2.37,.84-.37,.68-.7,1.15-1.38,1.16-.56,.01-1.8-1.01-1.9-1.63-.1-.64-.13-1.31-.1-1.96,.05-1.36,.17-2.72,.25-4.08,.02-.42,0-.85,0-1.61-.88,.93-1.53,1.62-2.18,2.31-.31,.33-.29,.67-.1,1.09,.51,1.12,.24,2.27-.06,3.36-.35,1.27-1.44,1.54-2.56,.74-.1-.07-.22-.11-.4-.19-.39,.71-.79,1.39-1.14,2.08-.28,.55-.7,.72-1.3,.64-.6-.08-.84-.45-.91-.96-.09-.6-.11-1.2-.17-1.91-.6,.52-.78,1.23-.96,1.92-.31,1.19-.55,2.4-.82,3.6-.12,.53-.31,.94-1.12,.61,.22-2.34,.43-4.72,.68-7.1,.02-.22,.25-.42,.41-.68,.7,.45,.43,1.27,.89,1.79,1-.77,1.14-2.36,2.59-2.83,.42,1.55-.74,2.97-.05,4.58,.29-.36,.57-.58,.7-.87,.54-1.15,1.12-2.29,1.51-3.49,.35-1.07,.95-1.78,1.88-2.37,1.29-.82,2.34-1.94,3.29-3.54-2.91,.95-5.22,2.41-7.42,4.08-.05-.08-.1-.17-.16-.25,.78-.56,1.53-1.17,2.36-1.66,1.28-.75,2.61-1.43,3.94-2.09,1.07-.53,1.87-1.19,2.09-2.47,.18-1.07,.53-2.13,.91-3.16,.31-.83,.67-1.72,1.99-1.94-.67,1.99-1.29,3.8-1.89,5.6,.39,.18,.61,.28,.83,.39v-.02Zm-6.48,5.98c-.59,1.23-.71,2.37,.08,3.58,.86-.9,1.18-1.83,.97-2.69-.12-.5-.35-.89-1.06-.89Z"/>
        <path class="cls-10" d="M272.76,55.81c-.45,.98-.82,2-1.37,2.92-.5,.84-1.17,1.64-2.41,.9-.43,.98-.8,1.81-1.17,2.64-1.54,.15-2.47-.69-2.46-2.29,.01-.99,.15-1.98,.26-3.18-.93,1.2-1.43,2.41-1.72,3.67-.3,1.25-.43,2.55-.64,3.81-.78,.02-.65-.49-.64-.84,.06-1.89,.16-3.77,.24-5.66,0-.15,0-.31-.19-.5-.21,.53-.42,1.07-.64,1.6-.07-.02-.14-.05-.21-.07,.25-.76,.47-1.53,.74-2.28,.69-1.93,.9-3.92,.96-5.96,.04-1.2,.17-1.32,1.28-1.67,.59,.6,.29,1.32,.21,1.98-.28,2.13-.59,4.26-.89,6.39-.03,.21-.01,.43,.15,.72,.33-.59,.64-1.18,1-1.75,.3-.48,.62-.97,1-1.38,.17-.19,.58-.37,.77-.29,.19,.09,.33,.49,.34,.76,0,.38-.12,.77-.2,1.16-.2,.9-.47,1.79-.59,2.7-.1,.76-.16,1.57,.7,2.27,.73-1,1.61-1.75,1.26-3.23-.35-1.53,.02-3.07,.78-4.45,.39-.71,1.04-1.16,1.86-1.36,.66,.42,.72,1,.46,1.61-.37,.84-.79,1.67-1.2,2.49-.37,.74-.73,1.47-.55,2.39,.87,.09,1.26-.42,1.61-.98,.43-.7,.85-1.4,1.28-2.1h-.03Zm-1.78-2.94c-.83,1.04-1.11,2.14-.87,3.18,1.21-1.77,1.33-2.15,.87-3.18Z"/>
        <path class="cls-10" d="M251.54,67.41c0,.13,0,.26-.03,.39-.31,1.56-.85,2.91-2.95,2.93-.62-.43-.74-1.24-.72-2.08,.03-.96,.07-1.91,.16-2.86,.08-.86,1.96-2.69,2.82-2.66,.53,.02,1.04,.31,1.58,.48,.22-.46,.47-1.02,.75-1.56,.05-.1,.21-.13,.44-.26,.49,1.98-.81,3.91-.15,6.02,1.09-.85,1.5-1.92,1.99-2.9,.31-.62,.58-1.32,.65-2,.16-1.54,1.12-2.53,2.14-3.51,.59-.56,1.04-.58,1.46-.08,.51,.6,.46,1.36-.19,1.89-.22-.32-.43-.63-.65-.94-.63-.1-.88,.34-1.06,.79-.47,1.18-.45,2.41-.26,3.63,.05,.29,.36,.68,.62,.74,.21,.05,.63-.25,.78-.5,.55-.93,1.03-1.91,1.72-2.78-.52,1.25-1.01,2.52-1.58,3.74-.32,.68-.74,.79-1.42,.48-.63-.29-1.21-.66-1.88-1.03-.45,.87-.89,1.72-1.33,2.57-.22,.42-.35,.98-1,.83-.58-.13-1.06-.44-1.2-1.08-.06-.25-.09-.51-.15-.76,0-.02-.08-.04-.12-.03-.04,0-.07,.05-.1,.08,.15-.72,.3-1.44,.45-2.16-.62-.44-1.2-.87-1.79-1.29-1.26,1.9-1.41,5.18-.24,6.31,.23-.46,.42-.87,.63-1.28,.2-.38,.41-.75,.62-1.13Z"/>
        <path class="cls-10" d="M292.5,63.29c1.07-.22,1.81-.83,2.29-1.77,.28-.54,.55-1.12,.65-1.71,.41-2.37,.96-4.71,1.05-7.14,.15-4.08,.52-8.15,.79-12.23,.03-.43,.05-.87,.07-1.3-1.16-.41-1.74,.69-2.74,.74,.49-.31,.97-.65,1.49-.91,.84-.41,1.38-1.05,1.64-1.94,.16-.55,.28-1.11,.51-1.63,.45-1.04,.92-2.08,1.45-3.08,.17-.32,.52-.61,.85-.78,.65-.32,1.29-.05,1.5,.54,.36,1.02,.18,1.5-.77,1.84-.11-.5-.22-.99-.34-1.49-1.24,.88-1.95,2.84-1.78,5.01,.57-.26,1.11-.5,1.75-.79-.11,.12-.13,.17-.17,.18-1.91,.66-2.14,2.16-2.29,3.95-.39,4.9-.94,9.79-1.54,14.67-.19,1.56-.67,3.09-1.08,4.62-.37,1.38-1.21,2.43-2.52,3.04-.25,.12-.55,.12-.83,.18Z"/>
        <path class="cls-10" d="M237.34,44.2c-.2,.78-.29,1.61-.61,2.33-.47,1.07-1.76,1.08-2.35,.05-.21-.37-.29-.82-.37-1.25-.09-.47-.1-.95-.38-1.5-.22,.53-.51,1.05-.65,1.6-.36,1.4-.64,2.82-.96,4.23-.07,.31-.17,.62-.26,.94-.67-.09-.72-.48-.73-.88-.07-2.89-.04-5.79-.24-8.68-.14-2.08,.5-4.02,.79-6.01,.09-.63,.27-1.31,1.25-1.45-.14,2.01-.3,3.96-.4,5.91-.1,1.95-.14,3.9-.1,5.89,.91-1.51,1.4-3.25,2.71-4.88,.35,2.23-.46,4.29,.77,6.3,.31-.38,.58-.63,.76-.94,.3-.53,.55-1.09,.81-1.64h-.04Z"/>
        <path class="cls-10" d="M291.58,54.29c-.42,1.85-.81,3.55-1.19,5.26-.11,.5-.19,1.01-.28,1.52-.01,.08,.06,.2,.03,.25-1.19,1.53-.83,3.43-1.27,5.14-.18,.72-.41,1.46-.37,2.19,.09,1.69-.03,3.46,.97,4.95,.29,.44,.83,.7,1.25,1.04-1.23,.14-2.11-.37-2.56-1.6-.22-.61-.38-1.26-.5-1.91-.35-1.87-.33-3.75-.11-5.64,.13-1.08,.12-2.18,.21-3.27,.03-.39,.12-.78,.23-1.15,.55-1.76,1.11-3.52,1.67-5.27,.26-.83,.62-1.56,1.92-1.51Z"/>
        <path class="cls-10" d="M278.66,114.89c-1.11-.05-2.04-.01-2.95-.14-1.28-.18-1.91-1.15-1.64-2.38,.1-.47,.31-.83,1-.71,.09,.38,.17,.8,.28,1.21,.29,1.07,1.15,1.64,2.3,1.52,.79-.08,1.38-.73,1.47-1.74,.2-2.33,1.48-4.09,2.97-5.74,.16-.18,.43-.26,.65-.38,.67,.75,.82,1.64,.34,2.52-.29,.53-.67,1.04-1.1,1.46-1.55,1.51-2.07,3.39-2.09,5.48-.04,3.12-.34,6.22-1.11,9.26-.3,1.17-.65,2.35-1.6,3.22,1.94-4.37,1.31-9,1.48-13.59Zm1.78-3.49c2.03-1.29,2.84-2.84,2.23-4.38-1.35,1.18-1.98,2.6-2.23,4.38Z"/>
        <path class="cls-10" d="M269.34,38.88c.33,.67,.01,1.26-.25,1.86-.26,.6-.57,1.19-.75,1.82-.18,.65-.16,1.38,.47,1.79,.61,.39,1.17-.01,1.68-.4,.13-.1,.25-.21,.45-.37-.22,1.54-1.95,1.79-4.29,1.06-.47,.68-.94,1.41-1.45,2.1-.37,.51-.8,.92-1.52,.85-1.05-.1-1.56-.55-1.74-1.62-.06-.39-.1-.78-.18-1.16-.02-.11-.17-.19-.39-.42,.64-.93,1.27-1.92,1.99-2.85,.28-.36,.71-.66,1.14-.84,.8-.33,1.04-.05,.91,1.05-.28-.14-.53-.27-.83-.42-1.2,1.68-1.17,3.48-.71,5.47,.37-.18,.66-.24,.81-.41,.96-1.13,1.98-2.2,2.06-3.84,.06-1.17,.21-2.37,1.17-3.26,.48-.44,.46-.46,1.42-.41Z"/>
        <path class="cls-10" d="M298,110.69c-.21,1.48-1.11,2.63-1.89,3.81-.31,.47-.9,.51-1.44,.32-.55-.19-.68-.62-.66-1.16,.02-.29-.02-.59-.05-1.06-.57,.43-.71,.93-.86,1.39-.29,.88-.54,1.76-.75,2.66-.16,.67-.51,.74-1.17,.45,0-1.44-.02-2.92,.03-4.4,.05-1.8,.15-3.6,.26-5.39,.07-1.23,.18-2.45,.29-3.68,.04-.41,.12-.81,.8-.7,.06,.29,.17,.62,.19,.94,.02,.35-.06,.7-.08,1.05-.13,2.54-.26,5.08-.37,7.61-.02,.38,.08,.76,.15,1.32,1.16-1.35,1.6-3.02,3.06-3.95-.2,.88-.41,1.75-.59,2.63-.07,.34-.11,.71-.05,1.04,.04,.22,.25,.51,.44,.57,.18,.06,.53-.09,.66-.25,.47-.63,.88-1.31,1.31-1.97,.26-.4,.51-.81,.76-1.21l-.03-.02Z"/>
        <path class="cls-10" d="M228.3,48.54c.13,1.78-.57,3.38-.97,5.04-.12,.01-.24,.03-.35,.04-.13-.27-.32-.54-.38-.83-.4-1.78-.28-3.58-.11-5.38,.2-2.05,.4-4.1,.63-6.38-1.85,.69-3.24,1.76-4.6,3.01,.08-.19,.1-.46,.24-.56,1.15-.87,2.28-1.79,3.52-2.53,.74-.44,1.09-.91,1.14-1.74,.05-.92,.18-1.84,.28-2.75,.06-.61,.17-1.2,.88-1.63,.47,1.7-.31,3.25-.19,4.91,.4,0,.77-.01,1.16-.02-.01,.07-.01,.18-.04,.19-1.15,.33-1.49,1.16-1.56,2.28-.15,2.46-.37,4.91-.56,7.36-.02,.29,.02,.59,.18,.92,.26-.64,.52-1.29,.78-1.93h-.04Z"/>
        <path class="cls-10" d="M288.44,21.65c.05,.33,.17,.66,.15,.97-.2,2.31-.43,4.61-.63,6.92-.13,1.48-.24,2.97-.31,4.45-.07,1.38-.05,2.76,.48,4.09-.83-.48-1.01-1.3-1.14-2.08-.64-3.99-.97-8-.58-12.04,.15-1.52,.41-1.85,2.03-2.31Z"/>
        <path class="cls-10" d="M277.4,66.24c-.88,.51-1.51,.87-2.13,1.23-.03-.05-.05-.09-.08-.14,.2-.12,.39-.25,.6-.34,1.44-.62,2.3-1.65,2.51-3.26,.08-.58,.42-1.14,.7-1.69,.25-.49,.65-.81,1.31-.75-.16,.63-.22,1.24-.47,1.77-.31,.68,.09,1.46-.51,2.15-.45,.51-.52,1.37-.7,2.09-.5,2-.98,4-1.44,6.01-.07,.28,0,.6-.01,1.1,.89-.66,1.1-1.63,1.9-2.15-.51,1.01-.99,2.05-1.56,3.03-.33,.58-.94,.55-1.22-.07-.23-.49-.33-1.09-.31-1.63,.03-.7,.31-1.38,.34-2.07,.05-1.19,.15-2.32,.73-3.41,.25-.46,.22-1.07,.36-1.87Z"/>
        <path class="cls-10" d="M258.62,83.26c-.75,1.1-1.29,2.59-3.05,2.12-1.41-.38-1.76-1.11-1.67-3.42-.73,.73-1.02,1.54-1.31,2.33-.23,.66-.42,1.34-.58,2.02-.13,.58-.51,.62-1.17,.62,.1-1.09,.2-2.12,.28-3.14,.04-.48,.32-.93-.13-1.47-.3-.36,.46-1.1,1.52-1.43,.11,.5,.22,.98,.35,1.55,1.51-.87,1.49-2.99,3.06-3.92,.29,.64,0,1.12-.06,1.61-.12,.91-.24,1.82-.32,2.73-.03,.29,.02,.62,.13,.9,.4,1.08,.83,1.2,1.75,.51,.41-.31,.8-.67,1.2-1Z"/>
        <path class="cls-10" d="M292.68,17.75c-.36,6.72-2.26,13.14-2.16,19.79-.1,0-.2,0-.29,0-.05-.55-.15-1.1-.14-1.64,.11-4.34,.21-8.68,.39-13.02,.07-1.64,.71-3.15,1.42-4.62,.07-.15,.2-.28,.32-.41,.05-.05,.16-.04,.46-.11Z"/>
        <path class="cls-10" d="M238.94,71.31c.13-.39,.4-.71,.12-1.22-.66-1.21-.46-1.5,1.13-1.87,.36,.48-.24,1.4,.74,1.67,.3-.2,.65-.44,1.22-.83-.37,1.81-1.21,3.42-.07,5.25,.33-.47,.6-.74,.75-1.07,.5-1.11,1.06-2.19,1.05-3.49,0-.88,.35-1.7,1.42-2.2-.12,.9-.27,1.65-.3,2.4-.02,.72-.05,1.48,.46,2.25,.23-.28,.44-.44,.52-.64,.44-1.13,.58-2.3,.38-3.49-.2-1.22-.43-1.42-1.73-1.58,.7-.8,1.62-.09,2.31-.45-.2,.16-.4,.32-.66,.53,.67,1.54,.56,3.12,.27,4.74-.26,1.45-1.31,2.24-2.8,.8-.29,.65-.55,1.3-.87,1.91-.21,.4-.34,.98-.99,.88-.59-.09-1.13-.37-1.3-.98-.15-.54-.2-1.12-.22-1.68-.01-.43,.09-.86,.13-1.23-.78-.83-1.09,.15-1.6,.28,0,0,.04,0,.04,0Z"/>
        <path class="cls-10" d="M224.77,81.63c-.09,1.52-.7,2.85-1.64,4-.53,.64-1.21,.4-1.48-.42-.12-.37-.19-.76-.33-1.37-.66,.74-.86,1.53-1.17,2.25-.24,.56-.41,1.16-.68,1.71-.32,.66-.88,.64-1.26-.01-.6-1.03-.89-2.1-.39-3.27,.38-.88,.65-1.84,1.16-2.64,.74-1.16,1.42-1.28,2.74-.74,.12-.27,.2-.57,.37-.8,.17-.23,.42-.39,.66-.6,.68,.86,.1,1.68,.12,2.47,.02,.8-.11,1.61-.19,2.72,1.26-1.03,1.41-2.35,2.14-3.3h-.04Zm-5.55,5.11c.74-1.55,1.38-2.83,1.94-4.14,.12-.28,.07-.7-.04-1-.2-.53-.75-.62-1.14-.19-.23,.25-.41,.57-.53,.89-.5,1.33-.78,2.68-.23,4.44Z"/>
        <path class="cls-10" d="M246.46,87.44c-.53,.99-1.01,2.01-1.6,2.96-.16,.26-.66,.4-1.01,.41-.47,.01-.62-.4-.68-.83-.03-.2-.11-.39-.27-.9-.26,.64-.37,1.01-.54,1.34-.36,.7-.69,1.42-1.13,2.06-.32,.45-.87,.63-1.42,.38-.58-.26-.47-.82-.36-1.27,.45-1.73,.74-3.55,2.22-4.82,.9-.77,.92-.79,1.88,.05,.52-.64,.66-1.67,1.84-1.79-.15,1.62-1.13,3.04-.95,4.97,.79-.98,1.43-1.77,2.06-2.55h-.04Zm-5.59,4.46c.27-.26,.41-.35,.49-.49,.58-1.03,1.17-2.05,1.72-3.1,.33-.63,.12-1.16-.34-1.63-1.14,.56-2.01,2.92-1.87,5.22Z"/>
        <path class="cls-10" d="M286.36,71.98c-.32-.41-.66-.73-.87-1.12-.67-1.25-.83-2.6-.56-3.97,.63-3.23,1.31-6.45,1.97-9.68,.14-.68,.46-1.13,1.3-1.07,.46,.55,.2,1.16,.06,1.72-.65,2.6-1.37,5.18-1.98,7.78-.25,1.06-.43,2.16-.42,3.25,0,.98,.32,1.96,.52,3.08Z"/>
        <path class="cls-10" d="M262.37,97.1c.51-.61,.88-1.06,1.3-1.55,.04,.15,.09,.24,.06,.28-1.09,1.45-1.54,3.1-1.68,4.88-.03,.43-.17,.86-.34,1.25-.24,.54-.68,.75-1.43,.5,.09-.49,.04-1.02,.27-1.38,.82-1.31,.46-2.65,.16-3.94-.37-1.57,.11-3,.49-4.45,.15-.58,.72-.71,1.49-.54-.04,.43,0,.9-.13,1.31-.55,1.64-.57,1.63-.18,3.65Z"/>
        <path class="cls-10" d="M271.94,76.18c.62-.97,.29-1.92-.09-3-.4,.29-.73,.53-1.06,.78-.03-.02-.06-.05-.09-.07,.14-.21,.24-.46,.43-.61,.55-.44,.77-.93,.47-1.61-.27-.61-.02-1.11,.38-1.56,.59-.66,1.65-1.1,2.55-1.05,.22,.71-.28,1.17-.64,1.62-.51,.64-.52,1.28-.24,1.96,.09,.21,.37,.33,.54,.48-.38,1.24-.75,2.57-1.18,3.88-.16,.49-.44,.95-.72,1.38-.13,.21-.37,.43-.6,.47-.31,.06-.72,.04-.96-.13-.14-.1-.13-.62,0-.83,.35-.6,.8-1.15,1.21-1.71-.27,.69-.53,1.37-.84,2.17,1.09-.49,1.28-1.08,.85-2.17Zm2.28-6.76c-.09-.06-.17-.12-.26-.18-1.12,.47-1.23,.72-.58,1.68,.3-.55,.57-1.02,.83-1.5Z"/>
        <path class="cls-10" d="M291.27,83.49c1.32-1.03,1.83-2.45,2.65-3.67-.31,1.58-1.2,2.85-2.15,4.08-.49,.64-1.67,.52-2.16-.24-.31-.49-.54-1.14-.52-1.71,.05-1.23,.31-2.46,1.07-3.47,.35-.47,.82-.91,1.34-1.19,1.03-.57,1.34-.32,1.48,1.21-.28-.38-.46-.63-.72-1.01-.21,.17-.55,.31-.6,.51-.4,1.65-.88,3.3-.63,5.04,.02,.11,.12,.21,.25,.44Z"/>
        <path class="cls-10" d="M240.78,46.03c1.99-.1,3.18-1.38,4.22-2.81,1.36-1.88,.57-4.12-1.63-4.87-.21-.07-.43-.11-.63-.19-1.19-.45-1.4-1.18-.51-2.08,.7-.71,1.63-1.09,2.52-1.5,.05,.08,.09,.16,.14,.24-.14,.1-.27,.21-.42,.28-.38,.19-.84,.29-1.13,.56-.61,.58-.49,1.31,.23,1.75,.22,.13,.47,.24,.73,.31,1.93,.54,2.99,2.76,1.77,4.78-.98,1.62-2.39,2.8-4.07,3.63-.32,.16-.73,.15-1.1,.23-.04-.11-.08-.22-.12-.33Z"/>
        <path class="cls-10" d="M293.57,42.22c.6,1.6-.15,3.21,.11,4.88,.47-.95,.94-1.91,1.41-2.86,.05,0,.1,.01,.15,.02-.06,.26-.09,.52-.18,.77-.5,1.31-.99,2.63-1.53,3.93-.12,.28-.44,.46-.66,.69-.23-.24-.58-.43-.66-.71-.15-.49-.21-1.04-.17-1.56,.09-1.36,.27-2.71,.39-4.06,.06-.66,.31-1.08,1.15-1.1Z"/>
        <path class="cls-10" d="M286.98,85.65c.47-.53,.94-1.06,1.41-1.59,.06,.04,.12,.09,.18,.13-.38,.61-.74,1.22-1.13,1.82-.34,.52-.81,.81-1.45,.57-.61-.23-.89-.72-.85-1.34,.06-1,.16-2,.28-3,.06-.51,.15-1.05,.34-1.52,.22-.53,.45-1.14,1.42-1.19-.21,2.05-.42,4-.62,5.96,.14,.05,.27,.11,.41,.16Z"/>
        <path class="cls-10" d="M269.11,93.69c-.03-.16-.13-.34-.08-.47,.46-1.09,.92-2.18,1.42-3.25,.11-.23,.36-.39,.72-.76,.17,2.01-.69,3.73-.22,5.66,1.16-.92,1.43-2.17,2.13-3.26-.07,.7-1.12,3.75-1.46,4.03-.23,.2-.61,.34-.91,.32-.49-.03-.95-.24-1.07-.81-.08-.38-.08-.79-.17-1.17-.03-.13-.26-.21-.4-.31,0,0,.04,.01,.04,.01Z"/>
        <path class="cls-10" d="M281.19,68.12c.07-1.16,.58-2,1.6-2.55,.57,.47,.43,.97,.35,1.43-.2,1.12-.44,2.24-.64,3.36-.05,.31,0,.65,0,.97,.09,.04,.18,.07,.27,.11,.41-.53,.81-1.06,1.22-1.58,.07,.04,.14,.08,.22,.12-.37,.68-.69,1.41-1.16,2.02-.17,.22-.69,.26-1.05,.25-.48-.02-.85-.33-.86-.84,0-.65,.07-1.31,.14-1.96,.04-.39,.16-.77,.2-1.16,0-.05-.22-.12-.33-.18h.04Z"/>
        <path class="cls-10" d="M246.5,87.45c.58-1.31,1.13-2.63,1.76-3.91,.16-.33,.58-.54,1.09-.98,0,.73,0,1.13,0,1.77,.36-.45,.59-.73,.85-1.06-.64,1.66-1.25,3.23-1.85,4.8-.22,.58-.56,.85-1.24,.52,.04-.49,.07-.98,.12-1.59-.35,.2-.56,.33-.78,.45,0,0,.04,.01,.04,.01Z"/>
        <path class="cls-10" d="M237.38,44.21c.57-3.24,1.24-5.06,2.26-5.84,.13,1.98-.54,3.95,.35,5.87,.36-.13,.63-.23,.89-.33,.26,.3-.25,.91-.76,.92-.72,.02-1.45-.46-1.74-1.16-.08-.19-.13-.4-.22-.7-.31,.47-.56,.84-.81,1.22,0,0,.04,.01,.04,.01Z"/>
        <path class="cls-10" d="M268.47,94.88c-.24,.68-.43,1.39-.74,2.04-.12,.25-.57,.58-.76,.52-.36-.11-.84-.43-.91-.75-.14-.57-.05-1.21,.01-1.81,.08-.84,.55-1.6,.22-2.53-.15-.44,.41-.91,1.17-.84,.53,1.53-.53,3.04-.21,4.76,.49-.53,.87-.95,1.26-1.37h-.03Z"/>
        <path class="cls-10" d="M281.21,53.59c.85,.09,.92,.55,.93,.99,0,.52-.04,1.05-.11,1.57-.16,1.26-.35,2.51-.73,3.77,.02-.69,0-1.39,.05-2.08,.06-1,.25-1.99-.25-2.97-.16-.31,.06-.81,.11-1.28Z"/>
        <path class="cls-10" d="M269.74,130.6c-.05-1.65-.11-3.29-.16-4.95,.61-.09,.68,.28,.66,.63-.06,1.44-.14,2.87-.22,4.31-.09,0-.19,0-.28,0Z"/>
        <path class="cls-10" d="M285.29,76.26c.51-.1,.9-.18,1.27-.25,.55,.75,.18,1.41,.2,2.23-.81-.51-1.04-1.22-1.47-1.99Z"/>
        <path class="cls-10" d="M285.19,60.8c.05,.97,.1,1.76,.14,2.55-.06,.02-.12,.05-.19,.07-.37-.63-.73-1.27-1.12-1.94,.36-.21,.69-.4,1.17-.67Z"/>
        <path class="cls-10" d="M282.75,64.29c-1.04-1.71-.98-1.97,.49-2.12-.15,.65-.29,1.25-.49,2.12Z"/>
        <path class="cls-10" d="M243.41,102.51c1.32-.76,2.64-1.52,3.95-2.28,0,0,0,0,0-.02-1.31,.76-2.62,1.51-3.93,2.27,0,0-.01,.02-.01,.02Z"/>
        <path class="cls-10" d="M271.64,87.18c.63-.36,1.26-.73,1.89-1.09,.03,.06,.06,.13,.09,.19-.68,.27-1.35,.54-2.03,.81,.02,.03,.03,.06,.05,.09Z"/>
        <path class="cls-10" d="M270.5,69.71c.64-.37,1.28-.74,1.92-1.11,.01,.02,.03,.05,.04,.07-.63,.36-1.25,.72-1.87,1.08-.03-.02-.06-.03-.08-.04Z"/>
        <path class="cls-10" d="M227.49,102.06c-.39,.74-.78,1.47-1.17,2.21h.03c.39-.72,.78-1.46,1.17-2.19l-.03-.02Z"/>
        <path class="cls-10" d="M228.34,48.55c.05-.72,.11-1.43,.16-2.15,.09,.01,.19,.02,.28,.04-.02,.73-.06,1.45-.48,2.1h.04Z"/>
        <path class="cls-10" d="M258.65,99.04c-.38,.5-.76,.99-1.14,1.49-.09-.07-.18-.14-.27-.21,.4-.49,.8-.97,1.2-1.46,.07,.06,.14,.12,.2,.18Z"/>
        <path class="cls-10" d="M281.14,68.11c-.18,.36-.36,.73-.54,1.09-.08-.05-.16-.11-.24-.16,.27-.31,.54-.62,.82-.92,0,0-.04-.01-.04-.01Z"/>
        <path class="cls-10" d="M224.82,81.64c.22-.4,.44-.8,.66-1.2,0,0-.04,0-.04,0-.22,.4-.44,.8-.66,1.2,0,0,.04,0,.04,0Z"/>
        <path class="cls-10" d="M268.5,94.89c-.07-.54,.01-.99,.61-1.2,0,0-.04-.01-.03-.01-.2,.4-.4,.8-.61,1.2,0,0,.03,.01,.03,.01Z"/>
        <path class="cls-10" d="M264.98,94.08c-.14,.19-.28,.38-.42,.57-.04-.03-.08-.06-.12-.09,.14-.19,.27-.39,.41-.58,.04,.03,.09,.07,.13,.1Z"/>
      </g>
    </g>
  </g>
</svg>