<?xml version="1.0" encoding="UTF-8"?>
<svg id="Layer_2" data-name="Layer 2" xmlns="http://www.w3.org/2000/svg" xmlns:xlink="http://www.w3.org/1999/xlink" viewBox="0 0 100 100">
  <defs>
    <style>
      .cls-1 {
        fill: #fff;
      }

      .cls-2 {
        fill: #f4978e;
        filter: url(#drop-shadow-1);
        stroke: #fff;
        stroke-miterlimit: 10;
        stroke-width: 4px;
      }
    </style>
    <filter id="drop-shadow-1" filterUnits="userSpaceOnUse">
      <feOffset dx="0" dy="0"/>
      <feGaussianBlur result="blur" stdDeviation="5"/>
      <feFlood flood-color="#000" flood-opacity=".25"/>
      <feComposite in2="blur" operator="in"/>
      <feComposite in="SourceGraphic"/>
    </filter>
  </defs>
  <g id="Layer_3" data-name="Layer 3">
    <g>
      <circle class="cls-2" cx="50" cy="50" r="48"/>
      <path class="cls-1" d="M80.22,68.81c.23,0,.47,0,.71,0,.76,0,1.24-.84,.87-1.49l-1.72-2.99c.18,0,.37,0,.55,0,.72,0,1.22-.79,.89-1.44l-5.36-20.76c-.17-.33-.52-.55-.89-.55-6.86,0-13.32,1.28-18.2,3.6-3.32,1.58-5.67,3.53-6.91,5.7-1.24-2.16-3.59-4.12-6.91-5.7-4.87-2.32-11.33-3.6-18.19-3.6-.37,0-.73,.22-.89,.55l-5.4,20.76c-.33,.65,.17,1.44,.89,1.44,.29,0,.57,0,.85,0l-1.72,2.99c-.36,.65,.1,1.49,.87,1.49,.24,0,.47,0,.71,0l-1.76,3.48c-.36,.71,.25,1.55,1.04,1.44l24.71-2.23c.53,2.41,2.73,2.3,5.82,2.3s5.29,.11,5.82-2.3l24.71,2.23c1.07,.17,1.37-1.23,1.27-1.44l-1.76-3.48Zm-57.77-6.45c-.12-.03-.25-.03-.37,0-.27,0-.53,0-.8-.01l4.4-18.77c6.34,.07,12.26,1.27,16.73,3.4,4.14,1.97,6.51,4.48,6.76,7.1v15.65c-4.39-3.24-14.4-7.09-26.72-7.36h0Zm56.03-.01c-.1-.01-.2-.01-.3,0-13.26,.25-22.94,3.69-27,7.32l-.02-15.61c.25-2.63,2.63-5.13,6.76-7.1,4.47-2.13,10.39-3.32,16.72-3.4l4.37,18.77c-.18,0-.36,0-.54,0h0Z"/>
      <g>
        <path class="cls-1" d="M61.83,33.03l-5.14,1.23c-.31,.07-.66,.38-.78,.68l-1.9,4.93c-.12,.3-.35,.32-.51,.05l-2.14-3.49-.62-1.01c-.17-.27-.57-.51-.88-.53l-1.19-.06-4.09-.22c-.32-.02-.41-.23-.2-.47l3.44-4.02c.21-.24,.31-.69,.23-1l-1.36-5.11c-.08-.31,.09-.46,.39-.34l4.88,2.03c.3,.12,.76,.08,1.03-.09l4.44-2.87c.27-.17,.47-.06,.44,.26l-.42,5.27c-.03,.32,.16,.74,.41,.95l4.1,3.33c.25,.2,.2,.43-.11,.5h0Z"/>
        <path class="cls-1" d="M49.77,36.06l.91,1.5-16.62,27.86c-.16,.28-.52,.37-.8,.2l-1.69-1.01c-.27-.16-.37-.52-.2-.8l16.62-27.86,1.75,.09s.02,.01,.03,.02h0Z"/>
        <path class="cls-1" d="M66.47,28.45c-.16,0-.33-.04-.48-.13-.44-.26-.59-.83-.32-1.28l1.75-2.94c.26-.44,.83-.59,1.28-.32,.44,.26,.59,.83,.32,1.28l-1.75,2.94c-.17,.29-.48,.45-.8,.45Z"/>
        <path class="cls-1" d="M69.07,28.01c-.16,0-.33-.04-.48-.13l-3.44-2.05c-.44-.26-.59-.83-.32-1.28,.26-.44,.83-.59,1.28-.32l3.44,2.05c.44,.26,.59,.83,.32,1.28-.17,.29-.48,.45-.8,.45h0Z"/>
        <path class="cls-1" d="M44.71,16.68c-.16,0-.33-.04-.48-.13-.44-.26-.59-.83-.32-1.28l1.75-2.94c.26-.44,.83-.59,1.28-.32,.44,.26,.59,.83,.32,1.28l-1.75,2.94c-.17,.29-.48,.45-.8,.45h0Z"/>
        <path class="cls-1" d="M47.31,16.24c-.16,0-.33-.04-.48-.13l-3.44-2.05c-.44-.26-.59-.83-.32-1.28,.26-.44,.83-.59,1.28-.32l3.44,2.05c.44,.26,.59,.83,.32,1.28-.17,.29-.48,.45-.8,.45h0Z"/>
        <path class="cls-1" d="M39.56,29.24c-.16,0-.33-.04-.48-.13-.44-.26-.59-.83-.32-1.28l1.75-2.94c.26-.44,.83-.59,1.28-.32,.44,.26,.59,.83,.32,1.28l-1.75,2.94c-.17,.29-.48,.45-.8,.45h0Z"/>
        <path class="cls-1" d="M42.16,28.79c-.16,0-.33-.04-.48-.13l-3.44-2.05c-.44-.26-.59-.83-.32-1.28,.26-.44,.83-.59,1.28-.32l3.44,2.05c.44,.26,.59,.83,.32,1.28-.17,.29-.48,.45-.8,.45h0Z"/>
      </g>
    </g>
  </g>
</svg>