<?xml version="1.0" encoding="UTF-8"?>
<svg xmlns="http://www.w3.org/2000/svg" viewBox="0 0 316 168">
  <defs>
    <style>
      .cls-1 {
        fill: #5f6060;
      }

      .cls-2 {
        fill: #fff;
      }

      .cls-3 {
        isolation: isolate;
      }

      .cls-4 {
        fill: #4d4d4d;
      }

      .cls-5 {
        fill: #f4978e;
      }

      .cls-6 {
        mix-blend-mode: multiply;
      }

      .cls-6, .cls-7 {
        fill: #c1c3c5;
      }

      .cls-8 {
        fill: #d1d6d2;
      }

      .cls-9 {
        fill: #e6e6e6;
      }

      .cls-10 {
        fill: #e2e3e4;
      }

      .cls-11 {
        fill: #eda7a4;
      }

      .cls-12 {
        fill: #f9f9f9;
      }
    </style>
  </defs>
  <g class="cls-3">
    <g id="Layer_2" data-name="Layer 2">
      <g id="Layer_3" data-name="Layer 3">
        <g>
          <rect class="cls-12" width="316" height="168"/>
          <g>
            <g>
              <rect class="cls-8" x="25.81" y="22.43" width="7.09" height="12.54" rx="1.8" ry="1.8"/>
              <rect class="cls-8" x="25.81" y="38.2" width="7.09" height="12.54" rx="1.8" ry="1.8"/>
              <rect class="cls-9" x="27.64" y="8.56" width="67.92" height="131.88" rx="7.5" ry="7.5"/>
              <path class="cls-5" d="M37.29,22.43h48.62c2.85,0,5.17,2.32,5.17,5.17V117.01c0,2.85-2.32,5.17-5.17,5.17H37.29c-2.85,0-5.17-2.31-5.17-5.17V27.6c0-2.85,2.31-5.17,5.17-5.17Z"/>
              <g>
                <path class="cls-1" d="M64.38,15.77h-18.48c-.53,0-.97,.44-.97,.97s.44,.97,.97,.97h18.48c.53,0,.97-.44,.97-.97s-.44-.97-.97-.97Z"/>
                <path class="cls-1" d="M76.34,14.8c-1.07,0-1.94,.87-1.94,1.94s.87,1.94,1.94,1.94,1.94-.87,1.94-1.94-.87-1.94-1.94-1.94Z"/>
              </g>
              <path class="cls-5" d="M66.17,131.01c-.28,5.85-9.15,5.91-9.15,0s8.87-5.85,9.15,0c.04,.93,1.5,.94,1.45,0-.16-3.27-2.63-6.03-6.03-6.03s-6.03,2.75-6.03,6.03,2.75,6.03,6.03,6.03,5.87-2.75,6.03-6.03c.04-.94-1.41-.93-1.45,0Z"/>
              <path class="cls-11" d="M91.08,103.09v13.92c0,2.85-2.31,5.17-5.17,5.17H37.29c-2.85,0-5.17-2.31-5.17-5.17V27.6c0-2.85,2.32-5.17,5.17-5.17h4.01l49.78,80.66Z"/>
            </g>
            <g>
              <rect class="cls-7" x="195.64" y="93.66" width="37.16" height="49.15"/>
              <rect class="cls-6" x="195.64" y="93.66" width="37.16" height="35.6"/>
              <path class="cls-10" d="M264.98,148.44h-101.51c-1.26,0-2.01-1.41-1.3-2.45l3.54-5.22c1.53-2.25,4.08-3.6,6.8-3.6h83.44c2.72,0,5.27,1.35,6.8,3.6l3.54,5.22c.71,1.04-.04,2.45-1.3,2.45Z"/>
              <g>
                <rect class="cls-4" x="138.25" y="10.66" width="151.94" height="112.47" rx="8.69" ry="8.69"/>
                <rect class="cls-5" x="146.53" y="18.29" width="135.38" height="92.5" rx="3.77" ry="3.77"/>
                <path class="cls-11" d="M281.91,95.65v11.36c0,2.08-1.69,3.77-3.77,3.77h-127.85c-2.08,0-3.77-1.69-3.77-3.77V22.06c0-2.08,1.69-3.77,3.77-3.77h9.44l122.18,77.36Z"/>
                <path class="cls-9" d="M138.25,104.92v9.51c0,4.8,3.89,8.7,8.7,8.7h134.54c4.8,0,8.7-3.89,8.7-8.7v-9.51H138.25Z"/>
              </g>
              <path class="cls-5" d="M220.05,113.13c0-.07,0-.13-.02-.19-.24-3.08-2.59-5.63-5.81-5.63s-5.83,2.66-5.83,5.83,2.66,5.83,5.83,5.83,5.57-2.55,5.81-5.63c.01-.06,.02-.12,.02-.19Zm-10.25,0c0-5.71,8.57-5.66,8.84,0-.27,5.65-8.84,5.72-8.84,0Z"/>
            </g>
            <g>
              <rect class="cls-4" x="80.32" y="63.44" width="91.39" height="59.69" rx="4.61" ry="4.61"/>
              <path class="cls-5" d="M166.73,70.33v45.86c0,1.12-1.01,2.03-2.27,2.03H87.57c-1.25,0-2.27-.91-2.27-2.03v-45.86c0-1.12,1.01-2.03,2.27-2.03h76.9c1.25,0,2.27,.91,2.27,2.03Z"/>
              <path class="cls-11" d="M166.73,110.06v6.13c0,1.12-1.01,2.03-2.27,2.03H87.57c-1.25,0-2.27-.91-2.27-2.03v-45.86c0-1.12,1.01-2.03,2.27-2.03h5.68l73.49,41.76Z"/>
              <path class="cls-4" d="M170.87,159.44H81.16c-4.96,0-8.38-4.66-7.66-7.16l7.42-23.17c.52-1.8,4.23-3.22,8.3-3.22h73.61c4.07,0,7.78,1.43,8.3,3.22l7.42,23.17c.72,2.5-2.7,7.16-7.66,7.16Z"/>
              <path class="cls-2" d="M170.87,155.75H81.16c-4.96,0-8.38-2.08-7.66-4.57l7.42-25.76c.52-1.8,4.23-3.22,8.3-3.22h73.61c4.07,0,7.78,1.43,8.29,3.22l7.42,25.76c.72,2.5-2.7,4.57-7.66,4.57Z"/>
              <path class="cls-7" d="M161.9,151.51H90.13c-3.97,0-6.84-1.63-6.41-3.61l4.55-21.26c.33-1.54,3.37-2.78,6.79-2.78h61.91c3.42,0,6.46,1.23,6.79,2.78l4.55,21.26c.42,1.98-2.44,3.61-6.41,3.61Z"/>
              <g>
                <rect class="cls-2" x="81.48" y="127.54" width="88.37" height=".86"/>
                <rect class="cls-2" x="81.48" y="133.45" width="88.37" height=".86"/>
                <rect class="cls-2" x="81.48" y="139.36" width="88.37" height=".86"/>
                <rect class="cls-2" x="81.48" y="145.27" width="88.37" height=".86"/>
              </g>
              <g>
                <polygon class="cls-2" points="131.36 155.75 129.91 155.75 129.41 122.19 130.69 122.19 131.36 155.75"/>
                <polygon class="cls-2" points="121.92 122.19 121.42 155.75 119.97 155.75 120.64 122.19 121.92 122.19"/>
                <polygon class="cls-2" points="113.14 122.19 111.49 155.75 110.03 155.75 111.86 122.19 113.14 122.19"/>
                <polygon class="cls-2" points="104.37 122.19 101.55 155.75 100.09 155.75 103.09 122.19 104.37 122.19"/>
                <polygon class="cls-2" points="95.59 122.19 91.61 155.75 90.16 155.75 94.31 122.19 95.59 122.19"/>
                <polygon class="cls-2" points="161.17 155.75 159.72 155.75 155.74 122.19 157.02 122.19 161.17 155.75"/>
                <polygon class="cls-2" points="151.24 155.75 149.78 155.75 146.96 122.19 148.24 122.19 151.24 155.75"/>
                <polygon class="cls-2" points="141.3 155.75 139.84 155.75 138.19 122.19 139.47 122.19 141.3 155.75"/>
              </g>
              <path class="cls-4" d="M137.45,151.51h-22.87c-1.26,0-2.14-.76-1.95-1.67l1.89-9.4c.13-.66,1.08-1.18,2.12-1.18h18.77c1.04,0,1.98,.52,2.12,1.18l1.89,9.4c.18,.91-.69,1.67-1.95,1.67Z"/>
            </g>
          </g>
        </g>
      </g>
    </g>
  </g>
</svg>