<svg xmlns="http://www.w3.org/2000/svg" xmlns:xlink="http://www.w3.org/1999/xlink" viewBox="0 0 200 200"><defs><style>.cls-1{fill:#f4978e;stroke:#fff;stroke-miterlimit:10;stroke-width:7.08px;filter:url(#filter);}.cls-2{fill:#fff;}</style><filter id="filter" x="-15.26" y="-15.98" width="232" height="232" filterUnits="userSpaceOnUse"><feOffset input="SourceAlpha"/><feGaussianBlur stdDeviation="8.85" result="blur"/><feFlood/><feComposite operator="in" in2="blur"/><feComposite in="SourceGraphic"/></filter></defs><g id="Layer_1" data-name="Layer 1"><circle class="cls-1" cx="100" cy="100" r="85"/><path class="cls-2" d="M60.46,150.09l1.6-5.17h17v-3.35H62.23L60,135.44c6.18-1.6,12.33-3.41,18.58-4.75a23,23,0,0,1,19.38,4.48c1.57,1.19,2.61,1.11,4.15,0A23.79,23.79,0,0,1,123,131c5.23,1.33,10.45,2.71,15.67,4.08a2.12,2.12,0,0,1,1.35,1H120.9v3.64h16.83l1.32,10.42H116.69c-3.1,0-6.2,0-9.3,0a6.88,6.88,0,0,1-5.59-2.34c-1.35-1.56-2.33-1.17-3.77.06A8.1,8.1,0,0,1,93.52,150C82.57,150.18,71.61,150.09,60.46,150.09Zm67.11-6.76H108.74v3.2h18.83ZM86.1,141.59H82.84v3.15H86.1Z"/><path class="cls-2" d="M131.22,101.39c2.63.52,3.83,1.84,4.31,4.46,1.45,7.93,3.24,15.79,4.9,23.69.14.7.26,1.4.44,2.38-.68-.11-1.21-.14-1.72-.27-5.85-1.49-11.66-3.21-17.58-4.42-7.24-1.48-14,.15-20.2,4.18a2,2,0,0,1-2.65.08,27.59,27.59,0,0,0-23.35-3.65c-5.28,1.42-10.57,2.78-16.24,4.27.15-1,.23-1.73.38-2.45,1.67-8,3.47-15.9,4.95-23.9.49-2.63,1.76-3.89,4.29-4.36.59,3.4,1.22,6.79,1.74,10.2a2.23,2.23,0,0,0,2.39,2.21,2.23,2.23,0,0,1,1.56,1.2c1.86,4.84,5.76,7.62,10.54,7.38s8.19-3.38,9.62-8.27c.27-.9,1.12-2.11,1.89-2.28a20.06,20.06,0,0,1,6.08-.41c1.63.16,2.62,1.33,3,3.16a10.11,10.11,0,0,0,9.48,7.8,10.27,10.27,0,0,0,10.2-6.87c.39-1.1.64-1.83,2.11-1.88a3,3,0,0,0,2-1.92C130.13,108.35,130.62,104.92,131.22,101.39Z"/><path class="cls-2" d="M80.94,72.26c-.07-4.11,1.49-7.13,5.18-8.83,3.46-1.59,7-.79,10,2.2,4.22,4.2,3.47,4.15,7.73-.07,2.93-2.9,6.45-3.65,9.87-2.19A8.59,8.59,0,0,1,119,72a28.47,28.47,0,0,1-11.51,22.44c-2,1.58-4.24,3-6.44,4.35a2.1,2.1,0,0,1-1.84.16c-3.5-2.51-7.21-4.83-10.28-7.81C83.66,86,81.28,79.45,80.94,72.26Zm34.5-1.16c-.33-3.1-1.87-4.62-4.89-4.82C110,70.45,111.38,71.8,115.44,71.1Z"/><path class="cls-2" d="M105.55,108.85a12.27,12.27,0,0,0-11.13-.06c-2.16-4.71-5.63-7.47-10.85-7.05-5.07.4-8,3.6-9.85,8.24-.56-3.36-1.12-6.73-1.78-10.67,3.57-1.22,7.07-2.73,10.72-3.58a8.94,8.94,0,0,1,8.46,1.93c2.17,2,4.87,3.32,7.28,5a2.4,2.4,0,0,0,3.14,0c2.94-2.08,5.94-4.06,8.88-6.14,2.38-1.68,5.07-1.29,7.5-.71A98.81,98.81,0,0,1,128,99.31c-.62,3.79-1.18,7.23-1.74,10.67-1.85-4.67-4.86-7.92-10-8.25S107.69,104.11,105.55,108.85Z"/><path class="cls-2" d="M84.38,119a6.92,6.92,0,1,1,7-6.78A6.94,6.94,0,0,1,84.38,119Z"/><path class="cls-2" d="M115.55,119a6.92,6.92,0,1,1,6.93-6.81A7,7,0,0,1,115.55,119Z"/><path class="cls-2" d="M101.64,49.88v4.9H98.36v-4.9Z"/><path class="cls-2" d="M88.05,52.23l3.07-1.52,1.76,3.43-3.07,1.48Z"/><path class="cls-2" d="M110.2,55.65l-3.08-1.52,1.69-3.41,3.1,1.48Z"/></g></svg>