<svg xmlns="http://www.w3.org/2000/svg" xmlns:xlink="http://www.w3.org/1999/xlink" viewBox="0 0 200 200"><defs><style>.cls-1{fill:#f4978e;stroke:#fff;stroke-miterlimit:10;stroke-width:7.08px;filter:url(#filter);}.cls-2{fill:#fff;}</style><filter id="filter" x="-15.26" y="-15.98" width="232" height="232" filterUnits="userSpaceOnUse"><feOffset input="SourceAlpha"/><feGaussianBlur stdDeviation="8.85" result="blur"/><feFlood/><feComposite operator="in" in2="blur"/><feComposite in="SourceGraphic"/></filter></defs><g id="Layer_1" data-name="Layer 1"><circle class="cls-1" cx="100" cy="100" r="85"/><path class="cls-2" d="M118.16,64.45V88.54c0,.43.13.95-.07,1.25a2.31,2.31,0,0,1-1.29,1.06c-.39.05-1-.46-1.26-.87a3.28,3.28,0,0,1-.18-1.52V40.13c0-1,0-2.15,1.39-2.18s1.42,1.08,1.42,2.12Q118.16,52.25,118.16,64.45Z"/><path class="cls-2" d="M83.28,64.51q0,9.42,0,18.85c0,.92-.13,1.86-1.19,1.89-.51,0-1.13-.61-1.53-1.09-.22-.26-.09-.82-.09-1.24q0-18.49,0-37v-.7c0-1,.37-1.75,1.42-1.74s1.4.75,1.39,1.75c0,5.62,0,11.24,0,16.86Z"/><path class="cls-2" d="M108.52,64.23V49.51c0-.43-.12-1,.08-1.25.34-.48.91-1.11,1.38-1.1s1,.7,1.31,1.17c.16.21,0,.64,0,1q0,14.87,0,29.72c0,.29.11.66,0,.84-.39.5-.87,1.28-1.33,1.28s-1-.72-1.4-1.22c-.18-.25,0-.74,0-1.11Z"/><path class="cls-2" d="M122.37,64.22V51.6c0-.33-.12-.74,0-1,.36-.57.78-1.38,1.31-1.5.93-.21,1.44.57,1.46,1.49,0,1.65,0,3.3,0,5V77.26c0,.43.14,1-.07,1.25-.39.49-1,1.08-1.5,1.11-.38,0-1-.73-1.18-1.25a5.24,5.24,0,0,1-.06-1.82Z"/><path class="cls-2" d="M87.49,63.65q0-5.59,0-11.19c0-1,.14-2,1.43-2s1.38.95,1.38,1.92V74.94c0,1-.18,2-1.47,2S87.48,76,87.48,75C87.5,71.21,87.49,67.43,87.49,63.65Z"/><path class="cls-2" d="M76.31,64.15v9.06c0,1-.15,2-1.47,2s-1.31-1-1.31-2q0-9,0-18.11c0-1,.14-1.92,1.32-2s1.46.92,1.46,2C76.3,58.12,76.31,61.14,76.31,64.15Z"/><path class="cls-2" d="M132.12,64.39c0,2.17,0,4.34,0,6.51,0,1-.27,1.87-1.43,1.84s-1.34-.85-1.34-1.8v-13c0-1,.23-1.86,1.44-1.83s1.33.85,1.33,1.79C132.11,60.05,132.12,62.22,132.12,64.39Z"/><path class="cls-2" d="M101.32,64c0-1.74,0-3.48,0-5.22,0-.92.34-1.64,1.32-1.67s1.45.7,1.45,1.68V69.53c0,1-.35,1.7-1.46,1.65s-1.3-.77-1.3-1.66Z"/><path class="cls-2" d="M69.34,63.84a15.89,15.89,0,0,1-.06,3.24c-.12.57-.88,1-1.34,1.5-.47-.49-1.31-1-1.34-1.48-.15-2.25-.08-4.52-.06-6.78a1.4,1.4,0,1,1,2.79,0C69.37,61.48,69.34,62.66,69.34,63.84Z"/><path class="cls-2" d="M139.11,64.21a12,12,0,0,1-.05,2.81,2.26,2.26,0,0,1-1.3,1.48c-.9.19-1.43-.56-1.45-1.49,0-1.93,0-3.85,0-5.78a1.4,1.4,0,1,1,2.79,0C139.14,62.23,139.11,63.22,139.11,64.21Z"/><path class="cls-2" d="M97.21,64.49a11.3,11.3,0,0,1-.06,2.67c-.13.54-.8,1.31-1.25,1.33a1.86,1.86,0,0,1-1.36-1.2,36.11,36.11,0,0,1,0-5.79,1.81,1.81,0,0,1,1.38-1.17c.45,0,1.11.79,1.23,1.34A12.59,12.59,0,0,1,97.21,64.49Z"/><path class="cls-2" d="M94.32,134.74c-3.33,3.06-6.62,6.18-10,9.16a16.07,16.07,0,0,1-4.19,2.68c-6.11,2.65-12.26,5.19-18.43,7.7-3.44,1.39-6.75-.59-7-4-.13-2.2,1-3.91,3.38-4.91,5.84-2.45,11.71-4.85,17.53-7.34a9.66,9.66,0,0,0,2.89-1.88c9.62-9.32,19.19-18.7,28.83-28a9.32,9.32,0,0,1,3.51-2.27,5.07,5.07,0,0,1,5.58,1.82,4.58,4.58,0,0,0,5.13,1.68c-.39-.57-.78-1.11-1.14-1.67a8.23,8.23,0,0,1,.5-9.78,8.33,8.33,0,0,1,14.82,5.3,2,2,0,0,1-1.4,2.22c-3.1,1.06-6.19,2.19-9.28,3.29a7.3,7.3,0,0,0-1.57.64c4.4.1,8.73.63,12.88-1.79a121.12,121.12,0,0,1,11.24-5.26c2.67-1.21,4.92-.58,6,1.63s.09,4.42-2.52,5.63c-5.33,2.48-10.67,5-16.05,7.34a9.13,9.13,0,0,1-3.38.62c-2.51.09-5,0-7.63.2,3.49.87,4.06,4.26,5.82,6.55.84,1.09,1.42,1.68,2.94,1.36,2.9-.63,5.86-1,8.81-1.39,2.56-.35,4.47,1,4.88,3.28s-1.13,4.2-3.66,4.62c-4.27.71-8.56,1.34-12.84,2a4,4,0,0,1-4.36-1.81c-1.82-2.89-3.62-5.8-5.33-8.75a4.88,4.88,0,0,0-4.61-2.63,4.66,4.66,0,0,0-4,3.42,4.6,4.6,0,0,0,1.93,5.09c.48.31,1,.54,1.63.89-3.51,3.5-7,6.89-10.36,10.38a14.25,14.25,0,0,0-2.42,3.44c-1.53,3.06-2.81,6.25-4.39,9.29a8.87,8.87,0,0,1-2.72,3.14c-5.91,4-11.9,7.81-17.88,11.68-2.87,1.85-5.73,1.41-7.3-1.08s-.76-5.19,2.13-7.08c5.2-3.39,10.45-6.72,15.59-10.2a8.14,8.14,0,0,0,2.55-3c1.7-3.34,3.18-6.79,4.8-10.18C95.69,135.73,95.52,135.1,94.32,134.74Z"/><path class="cls-2" d="M105.37,106.23c-9.79,9.41-19.51,18.9-29.43,28.17-1.61,1.5-4.12,2-6.3,3-.37-.6-.66-1-.89-1.45Q62,122.91,55.25,109.81c-1.44-2.8-.61-4.16,2.51-4.17h47.31Z"/><path class="cls-2" d="M77.63,153.14l-1-1.83c3.89-1.88,8.29-2.77,10.94-6.65l.52.54a9.66,9.66,0,0,1-1.71,2.19C83.59,149.34,80.69,151.15,77.63,153.14Z"/></g></svg>