<svg xmlns="http://www.w3.org/2000/svg" xmlns:xlink="http://www.w3.org/1999/xlink" viewBox="0 0 200 200"><defs><style>.cls-1,.cls-3{fill:#f4978e;}.cls-1{stroke:#fff;stroke-miterlimit:10;stroke-width:7.08px;filter:url(#filter);}.cls-2{fill:#fff;}</style><filter id="filter" x="-15.26" y="-15.98" width="232" height="232" filterUnits="userSpaceOnUse"><feOffset input="SourceAlpha"/><feGaussianBlur stdDeviation="8.85" result="blur"/><feFlood/><feComposite operator="in" in2="blur"/><feComposite in="SourceGraphic"/></filter></defs><g id="Layer_1" data-name="Layer 1"><circle class="cls-1" cx="100" cy="100" r="85"/><path class="cls-2" d="M47,119H39.81v-7h6.94v-3.06q0-24.37,0-48.76c0-7.58,4.2-11.8,11.78-11.86,3.12,0,6.24,0,9.52,0v7.09H58.91c-4.1,0-5.08,1-5.08,5.18,0,12.32,0,24.64,0,37.43,7.24-6.39,15.32-8.85,24.36-6.38S93,100.32,95.7,109.24h8.41c5-18.34,27.15-24.75,42.06-11.44V60.23c0-3.8-1.09-4.87-4.9-4.9l-8.71-.06A2.73,2.73,0,0,1,132,55V48c4.68.26,9.42,0,13.94.9,4.68.91,7.34,5.32,7.34,10.52q0,24.74,0,49.46v2.87h6.94v7.06h-7.1c-.28,1-.52,1.79-.72,2.6a24.91,24.91,0,0,1-24.69,18.68,24.53,24.53,0,0,1-23.54-20c-.71-3.52-2.56-4.76-5.89-3.66a3.32,3.32,0,0,0-2,2.1A24.89,24.89,0,0,1,72,140.12C60.7,140.28,49.59,132.49,47,119Z"/><path class="cls-3" d="M80.31,116.78v11.53c0,.2.06.45,0,.59a1.1,1.1,0,0,1-.61.51c-.19,0-.48-.22-.6-.42a1.42,1.42,0,0,1-.09-.72V105.14c0-.49,0-1,.66-1s.68.52.68,1Z"/><path class="cls-3" d="M63.62,116.81c0,3,0,6,0,9,0,.44-.06.89-.57.91-.24,0-.54-.29-.73-.52s0-.39,0-.6v-18c0-.47.18-.84.68-.84s.67.37.67.84c0,2.69,0,5.38,0,8.07Z"/><path class="cls-3" d="M75.7,116.67v-7c0-.2-.06-.46,0-.6s.44-.53.66-.52.46.33.63.56,0,.3,0,.46v14.22c0,.14,0,.31,0,.4s-.42.61-.64.61-.49-.34-.67-.58,0-.35,0-.53Z"/><path class="cls-3" d="M82.32,116.67v-6c0-.16-.06-.35,0-.47s.37-.65.62-.71c.45-.1.69.27.7.71,0,.79,0,1.58,0,2.37v10.38c0,.2.06.46,0,.59s-.46.52-.71.53-.47-.34-.57-.59a2.52,2.52,0,0,1,0-.87Z"/><path class="cls-3" d="M65.63,116.4c0-1.79,0-3.57,0-5.36,0-.49.06-1,.68-.94s.66.45.66.92V121.8c0,.49-.08,1-.7.93s-.64-.44-.64-.91C65.64,120,65.63,118.2,65.63,116.4Z"/><path class="cls-3" d="M60.28,116.64V121c0,.49-.07,1-.7.93S59,121.43,59,121q0-4.34,0-8.67c0-.46.07-.91.63-.93s.71.44.71.93C60.28,113.75,60.28,115.19,60.28,116.64Z"/><path class="cls-3" d="M87,116.75c0,1,0,2.08,0,3.11,0,.49-.13.9-.69.88s-.64-.4-.64-.86v-6.23c0-.47.11-.89.69-.87s.64.4.64.85C87,114.67,87,115.71,87,116.75Z"/><path class="cls-3" d="M72.25,116.57v-2.5c0-.44.16-.78.63-.8s.69.33.69.8v5.14c0,.46-.17.81-.7.79s-.62-.37-.62-.8Z"/><path class="cls-3" d="M57,116.49a8,8,0,0,1,0,1.55c-.06.27-.42.48-.64.72-.23-.24-.62-.46-.64-.71-.07-1.08,0-2.17,0-3.25a.67.67,0,1,1,1.33,0C57,115.36,57,115.92,57,116.49Z"/><path class="cls-3" d="M90.33,116.66a5.52,5.52,0,0,1,0,1.35,1.07,1.07,0,0,1-.61.71c-.44.09-.69-.27-.7-.72,0-.92,0-1.84,0-2.76a.67.67,0,1,1,1.33,0C90.34,115.72,90.33,116.19,90.33,116.66Z"/><path class="cls-3" d="M70.28,116.8a5.38,5.38,0,0,1,0,1.27c-.07.27-.39.63-.6.64a.86.86,0,0,1-.65-.57,16,16,0,0,1,0-2.77.86.86,0,0,1,.65-.56c.22,0,.54.38.6.64A6.07,6.07,0,0,1,70.28,116.8Z"/><path class="cls-3" d="M134.13,116.78v11.53c0,.2.06.45,0,.59a1.12,1.12,0,0,1-.62.51c-.19,0-.48-.22-.6-.42a1.54,1.54,0,0,1-.09-.72V105.14c0-.49,0-1,.67-1s.67.52.67,1Z"/><path class="cls-3" d="M117.44,116.81c0,3,0,6,0,9,0,.44-.07.89-.58.91-.24,0-.54-.29-.73-.52s0-.39,0-.6v-18c0-.47.18-.84.68-.84s.67.37.67.84q0,4,0,8.07Z"/><path class="cls-3" d="M129.52,116.67v-7c0-.2-.06-.46,0-.6s.43-.53.66-.52.45.33.62.56,0,.3,0,.46v14.22c0,.14,0,.31,0,.4s-.42.61-.64.61-.49-.34-.67-.58,0-.35,0-.53Z"/><path class="cls-3" d="M136.15,116.67v-6c0-.16-.06-.35,0-.47s.37-.65.63-.71c.44-.1.68.27.69.71,0,.79,0,1.58,0,2.37v10.38c0,.2.07.46,0,.59s-.46.52-.71.53-.47-.34-.57-.59a2.53,2.53,0,0,1,0-.87Z"/><path class="cls-3" d="M119.46,116.4c0-1.79,0-3.57,0-5.36,0-.49.07-1,.69-.94s.66.45.66.92V121.8c0,.49-.09,1-.7.93s-.65-.44-.65-.91C119.46,120,119.46,118.2,119.46,116.4Z"/><path class="cls-3" d="M114.11,116.64V121c0,.49-.07,1-.7.93s-.63-.47-.63-.93c0-2.89,0-5.78,0-8.67,0-.46.07-.91.63-.93s.7.44.7.93Z"/><path class="cls-3" d="M140.81,116.75c0,1,0,2.08,0,3.11,0,.49-.13.9-.68.88s-.65-.4-.65-.86q0-3.1,0-6.23c0-.47.12-.89.69-.87s.64.4.64.85Z"/><path class="cls-3" d="M126.07,116.57c0-.83,0-1.67,0-2.5,0-.44.16-.78.63-.8s.69.33.69.8c0,1.71,0,3.43,0,5.14,0,.46-.16.81-.69.79s-.63-.37-.63-.8Z"/><path class="cls-3" d="M110.77,116.49a7.28,7.28,0,0,1,0,1.55c0,.27-.41.48-.64.72-.22-.24-.62-.46-.64-.71-.07-1.08,0-2.17,0-3.25a.61.61,0,0,1,.66-.69.63.63,0,0,1,.67.69C110.79,115.36,110.77,115.92,110.77,116.49Z"/><path class="cls-3" d="M144.16,116.66a6.07,6.07,0,0,1,0,1.35,1.11,1.11,0,0,1-.62.71c-.43.09-.69-.27-.69-.72,0-.92,0-1.84,0-2.76a.67.67,0,1,1,1.33,0C144.17,115.72,144.16,116.19,144.16,116.66Z"/><path class="cls-3" d="M124.11,116.8a5.37,5.37,0,0,1,0,1.27c-.06.27-.38.63-.6.64a.87.87,0,0,1-.65-.57,18.3,18.3,0,0,1,0-2.77.86.86,0,0,1,.66-.56c.22,0,.53.38.59.64A6.06,6.06,0,0,1,124.11,116.8Z"/></g></svg>