<svg xmlns="http://www.w3.org/2000/svg" xmlns:xlink="http://www.w3.org/1999/xlink" viewBox="0 0 200 200"><defs><style>.cls-1,.cls-3{fill:#f4978e;}.cls-1{stroke:#fff;stroke-miterlimit:10;stroke-width:7.08px;filter:url(#filter);}.cls-2{fill:#fff;}</style><filter id="filter" x="-15.18" y="-15.3" width="230.64" height="230.64" filterUnits="userSpaceOnUse"><feOffset input="SourceAlpha"/><feGaussianBlur stdDeviation="8.85" result="blur"/><feFlood/><feComposite operator="in" in2="blur"/><feComposite in="SourceGraphic"/></filter></defs><g id="Layer_1" data-name="Layer 1"><circle class="cls-1" cx="100" cy="100" r="85"/><path class="cls-2" d="M50.31,58.81c18.79,0,35.63-5.24,49.55-18.94,13.73,13.6,30.6,19,49.43,18.92a3.3,3.3,0,0,1,.28.79c.31,14.46.85,28.91-1,43.33-3.63,27.71-18.74,46.23-44.6,56.36a10,10,0,0,1-8,0c-15.19-6.16-28-15.09-36.23-29.74A67.66,67.66,0,0,1,51,100.44c-.8-13.39-.63-26.85-.86-40.28A8.6,8.6,0,0,1,50.31,58.81Z"/><path class="cls-3" d="M113,108.93l2.26,3.37,7.36-5.76,3,3.69L118,116.37l1.85,2.92,7.6-5.58,2.88,3.81c-3.28,2.45-6.38,4.79-9.5,7.08-1.56,1.14-2.85.57-3.82-.88-3.06-4.56-6.09-9.15-9.15-13.72-1.16-1.74-.46-3,1-4.07,2.89-2.14,5.77-4.3,8.94-6.67l2.91,3.79Z"/><path class="cls-3" d="M81.75,120.74l-2,4.21c-5-2.51-9.87-4.89-14.63-7.5a3,3,0,0,1-.82-2.78,88.53,88.53,0,0,1,5-9.87,3.19,3.19,0,0,1,3-.85c4.8,2.17,9.48,4.6,14.39,7l-2.07,4.25L79,112.65l-2.57,5.09Zm-9.62-5.25,2.32-4.86c-2-2.08-2.73-.62-3.4,1S68.62,114.8,72.13,115.49Z"/><path class="cls-3" d="M104.83,96.41V103a2.61,2.61,0,0,1-3,2.95c-2.9,0-5.8,0-8.69,0a2.52,2.52,0,0,1-2.79-2.8c0-4.49,0-9,0-13.48a2.61,2.61,0,0,1,3-3c2.9,0,5.79,0,8.69,0a2.51,2.51,0,0,1,2.79,2.79C104.84,91.82,104.82,94.11,104.83,96.41Zm-9.38-4.77V101h4.38V91.64Z"/><path class="cls-3" d="M121.86,87.65,116,93.21l-3.13-3.34c4.06-4.09,8-8.19,12.1-12.05.57-.53,2.6-.32,3.33.29,2.43,2,4.58,4.44,6.84,6.7a1.34,1.34,0,0,1,.37.46c1.53,4.31-3,5-4.55,7.45-1,1.59-2.65,1.67-4.07.21C125.25,91.22,123.62,89.49,121.86,87.65Zm8.55-.84c-1.42-1.33-2.6-2.45-3.85-3.49a9.43,9.43,0,0,0-1.13,1c1.06,1.13,2.09,2.3,3.23,3.34C128.79,87.81,129.55,87.25,130.41,86.81Z"/><path class="cls-3" d="M80.11,74.79l1.24,4.51-6.3,1.8c.3,2.48.3,2.48,7.43,1l1.29,4.41-2.92.85-3.22.92c1,2.36,1.87,4.62,2.87,7.1l-4.33,1.89c-2.49-5.81-5-11.44-7.19-17.19-.25-.65,1.09-2.55,2-2.91C73.83,76.16,76.81,75.62,80.11,74.79Z"/><path class="cls-3" d="M101.58,139.66H98.23c-.68-2.79-.32-5,2.55-6.29a3.19,3.19,0,0,0,1-.81c1.29-1.4,2.17-3.11,1.11-4.81a5,5,0,0,0-3.26-2.12c-2.06-.22-3.11,1.38-3.56,3.35H92.68a7,7,0,0,1,4-6.27,6.68,6.68,0,0,1,7.51.78,6.36,6.36,0,0,1,2.5,7.11,12.78,12.78,0,0,1-3.21,5.11C102.28,136.85,101.23,137.74,101.58,139.66Z"/><path class="cls-3" d="M101.46,146.77H98.17v-3.33h3.29Z"/><path class="cls-3" d="M100.21,70.8,97,69.87c.11-2.86,1.09-4.93,4.19-5.33a3.12,3.12,0,0,0,1.23-.49c1.63-1,3-2.38,2.4-4.32a5,5,0,0,0-2.54-2.93c-1.92-.78-3.37.46-4.35,2.23l-3.31-1a7,7,0,0,1,5.56-4.92,6.66,6.66,0,0,1,7,2.83,6.37,6.37,0,0,1,.44,7.52,12.74,12.74,0,0,1-4.51,4C101.66,68.3,100.4,68.87,100.21,70.8Z"/><path class="cls-3" d="M98.12,77.6,95,76.69l.92-3.2L99,74.4Z"/></g></svg>