<svg xmlns="http://www.w3.org/2000/svg" xmlns:xlink="http://www.w3.org/1999/xlink" viewBox="0 0 200 200"><defs><style>.cls-1{fill:#f4978e;stroke:#fff;stroke-miterlimit:10;stroke-width:7.08px;filter:url(#filter);}.cls-2{fill:#fff;}</style><filter id="filter" x="-15.34" y="-15.3" width="230.64" height="230.64" filterUnits="userSpaceOnUse"><feOffset input="SourceAlpha"/><feGaussianBlur stdDeviation="8.85" result="blur"/><feFlood/><feComposite operator="in" in2="blur"/><feComposite in="SourceGraphic"/></filter></defs><g id="Layer_1" data-name="Layer 1"><circle class="cls-1" cx="100" cy="100" r="85"/><path class="cls-2" d="M100.72,138.49c-4.14-.89-8-1.26-11.53-2.55a30.38,30.38,0,1,1,41.12-25.85,29,29,0,0,1-5.92,15.51,3.64,3.64,0,0,1-2.6.8c-5.2,0-10.45-.7-15.57-.13-4.27.47-6.72,5.18-6,9.48C100.36,136.37,100.46,137,100.72,138.49Z"/><path class="cls-2" d="M141.21,101.65C138.61,81,121,65.89,99.87,65.93,79.4,66,61.57,81.4,59.09,101.42c2.53.77,2.78,2.78,2.72,5.14-.13,4.14-.08,8.28,0,12.42,0,2.41-1,3.49-3.44,3.56-7,.19-7,.25-7-6.79,0-3.59-.07-7.18,0-10.77,0-.91.52-2.48,1-2.57,2.5-.48,2.34-2.47,2.72-4.15,5-22.29,23.28-37,45.76-36.75C123,61.75,140.93,77,145.46,99.4c.19,1,1.19,1.75,1.76,2.65s1.37,1.62,1.39,2.45c.13,5.06.1,10.13,0,15.19,0,.75-.4,2-.87,2.14-2.51.75-2,2.68-2,4.43,0,.83,0,1.66,0,2.49,0,5.48-2.24,7.71-7.71,7.73-3.77,0-7.54,0-11.32,0a32.12,32.12,0,0,0-6.8,1.21c-4.08.93-8.55.55-12.79.12-1-.11-2.33-2.53-2.48-4a3.32,3.32,0,0,1,3.45-3.6c4.63.24,9.57-1.74,13.86,1.63.3.24.88.17,1.34.17,5.06,0,10.13,0,15.19,0,2,0,2.92-.76,2.83-2.78-.05-1.38,0-2.76,0-4.14s.07-2.36-1.6-3c-.8-.32-1.39-2.07-1.43-3.2-.16-4.32,0-8.65-.09-13C138.17,103.69,138.52,101.85,141.21,101.65Z"/><path class="cls-2" d="M40.14,121.16l-4,3.82c-13.78-12-15.39-37.7,0-52.15L40,77a31.55,31.55,0,0,0,.18,44.21Z"/><path class="cls-2" d="M44.91,81.69l4,3.81c-7.43,8.28-7,19.19,0,26.91L45,116.3C35.35,108.4,35.33,90,44.91,81.69Z"/><path class="cls-2" d="M159.86,76.65l4-3.82c13.78,12,15.39,37.7,0,52.15L160,120.85a31.53,31.53,0,0,0-.18-44.2Z"/><path class="cls-2" d="M155.09,116.12l-4-3.81c7.43-8.28,7-19.19,0-26.92L155,81.51C164.65,89.4,164.67,107.81,155.09,116.12Z"/></g></svg>