<svg xmlns="http://www.w3.org/2000/svg" xmlns:xlink="http://www.w3.org/1999/xlink" viewBox="0 0 200 200"><defs><style>.cls-1{fill:#f4978e;stroke:#fff;stroke-miterlimit:10;stroke-width:7.08px;filter:url(#filter);}.cls-2{fill:#fff;}</style><filter id="filter" x="-15.26" y="-15.3" width="230.64" height="230.64" filterUnits="userSpaceOnUse"><feOffset input="SourceAlpha"/><feGaussianBlur stdDeviation="8.85" result="blur"/><feFlood/><feComposite operator="in" in2="blur"/><feComposite in="SourceGraphic"/></filter></defs><g id="Layer_1" data-name="Layer 1"><circle class="cls-1" cx="100" cy="100" r="85"/><path class="cls-2" d="M123.84,106.53c-17.57,3.76-24.28,13.45-22,31.66H60.14c-3.6,0-4.36-.73-4.36-4.3q0-24.43,0-48.87,0-15.28,0-30.57c0-3.58.76-4.33,4.33-4.33H119.5c3.48,0,4.28.78,4.28,4.18l.06,50.23ZM100.51,63c-4.54,0-9.08,0-13.62,0-2.14,0-3.44,1.1-3.48,2.83s1.34,3,3.56,3q13.52,0,27,0c2.11,0,3.44-1.16,3.49-2.87s-1.34-3-3.57-3C109.46,63,105,63,100.51,63Zm0,17.54c-4.54,0-9.08,0-13.62,0-2.24,0-3.59,1.18-3.53,3s1.4,2.84,3.51,2.84q13.52,0,27,0c2.2,0,3.59-1.23,3.53-3s-1.38-2.8-3.51-2.81C109.51,80.48,105,80.5,100.56,80.5Zm0,17.53c-4.54,0-9.08,0-13.62,0-2.25,0-3.6,1.15-3.58,2.94s1.42,2.89,3.67,2.89q13.43,0,26.85,0c2.22,0,3.6-1.2,3.57-3S116.11,98,113.83,98C109.42,98,105,98,100.6,98ZM69,64.85c-.72-.67-1.18-1.11-1.65-1.53C65.82,62,64.17,62,63,63.23a2.93,2.93,0,0,0,.19,4.18c1.1,1.19,2.25,2.34,3.44,3.43,1.5,1.39,2.94,1.37,4.45-.08C73,68.92,74.84,67,76.69,65.12c1.44-1.49,1.49-3.24.21-4.44S74,59.61,72.59,61C71.36,62.24,70.2,63.53,69,64.85ZM68.8,82.59a22.26,22.26,0,0,0-1.6-1.83,2.87,2.87,0,0,0-4.18,0,2.91,2.91,0,0,0,.12,4.18c1.1,1.19,2.25,2.33,3.43,3.43,1.51,1.41,3,1.42,4.45,0Q74,85.5,76.79,82.56a2.9,2.9,0,0,0,.14-4.31c-1.22-1.19-2.87-1.13-4.3.27C71.39,79.74,70.25,81.05,68.8,82.59ZM69,99.93c-.72-.68-1.18-1.13-1.65-1.55-1.49-1.3-3.15-1.33-4.33-.08a2.93,2.93,0,0,0,.19,4.18c1.11,1.19,2.25,2.34,3.44,3.43,1.5,1.39,2.94,1.37,4.45-.08,1.91-1.85,3.78-3.73,5.63-5.64,1.44-1.49,1.49-3.24.21-4.45s-2.87-1.07-4.31.35C71.36,97.31,70.2,98.61,69,99.93Zm0,17.52c-.71-.66-1.16-1.1-1.64-1.52-1.48-1.31-3.13-1.35-4.32-.1a2.91,2.91,0,0,0,.18,4.17c1,1.14,2.16,2.24,3.29,3.31,1.64,1.55,3.08,1.54,4.73-.07q2.79-2.71,5.49-5.5c1.45-1.5,1.5-3.24.23-4.45s-2.87-1.09-4.31.32C71.36,114.83,70.21,116.13,69,117.45Z"/><path class="cls-2" d="M144.22,131.45a18.69,18.69,0,1,1-18-19A18.7,18.7,0,0,1,144.22,131.45Zm-15.68-2.84a29.94,29.94,0,0,0,0-3.43,2.63,2.63,0,0,0-2.81-2.42c-1.42,0-2.81.81-2.72,2.23a10.28,10.28,0,0,1-3.77,8.94,2.19,2.19,0,0,0,.48,3.42c.88.55,2.71.93,3.27.43C125.78,135.31,129.71,133.35,128.54,128.61Z"/></g></svg>