<svg xmlns="http://www.w3.org/2000/svg" xmlns:xlink="http://www.w3.org/1999/xlink" viewBox="0 0 200 200"><defs><style>.cls-1{fill:#f4978e;stroke:#fff;stroke-miterlimit:10;stroke-width:7.08px;filter:url(#filter);}.cls-2{fill:#fff;}</style><filter id="filter" x="-15.18" y="-15.3" width="230.64" height="230.64" filterUnits="userSpaceOnUse"><feOffset input="SourceAlpha"/><feGaussianBlur stdDeviation="8.85" result="blur"/><feFlood/><feComposite operator="in" in2="blur"/><feComposite in="SourceGraphic"/></filter></defs><g id="Layer_1" data-name="Layer 1"><circle class="cls-1" cx="100" cy="100" r="85"/><path class="cls-2" d="M91.52,104.31c0,2.15,0,4,0,5.85s.86,2.66,2.69,2.65c3.85,0,7.71,0,11.57,0,2,0,2.66-.69,2.69-2.81,0-1.79,0-3.57,0-5.67H111c10.11,0,20.22.1,30.33-.07a17.9,17.9,0,0,0,6.21-1.65c2-.85,3.58-.25,3.59,1.94,0,10,.08,20.09,0,30.14a8.16,8.16,0,0,1-6.85,7.74,14,14,0,0,1-2.58.23q-41.61,0-83.22,0c-4.94,0-8.34-2.5-9.29-6.79a11.05,11.05,0,0,1-.2-2.37c0-9.38,0-18.76,0-28.14a3.9,3.9,0,0,1,1.17-2.85c.57-.39,1.88.24,2.84.47,1.85.43,3.69,1.26,5.53,1.28,10.18.13,20.36.06,30.54.06Z"/><path class="cls-2" d="M78.73,70.08c0-1.46,0-2.72,0-4,.11-4.94,3.39-8.56,8.32-8.64q13-.24,25.93,0c4.93.1,8.15,3.73,8.26,8.71,0,1.25,0,2.5,0,4h2.94c5.79,0,11.58,0,17.36,0,6.1,0,9.54,3.46,9.55,9.51,0,4,.06,8,0,12a8.34,8.34,0,0,1-8.24,8.34c-11.17.08-22.34,0-33.52,0a3.15,3.15,0,0,1-.55-.11c-.09-.13-.21-.23-.22-.35-.3-3.7-.43-3.82-4.19-3.82H96.17c-4.26,0-4.26,0-4.86,4.2-.61,0-1.26.09-1.9.09q-15.57,0-31.13,0c-5.94,0-9.38-3.46-9.39-9.43,0-3.72,0-7.45,0-11.17,0-5.68,3.51-9.21,9.21-9.24,6.25,0,12.5,0,18.76,0C77.38,70.18,77.91,70.12,78.73,70.08ZM87.28,70h25.36V66.16H87.28Z"/></g></svg>