<svg xmlns="http://www.w3.org/2000/svg" xmlns:xlink="http://www.w3.org/1999/xlink" viewBox="0 0 200 200"><defs><style>.cls-1{fill:#f4978e;stroke:#fff;stroke-miterlimit:10;stroke-width:7.08px;filter:url(#filter);}.cls-2{fill:#fff;}</style><filter id="filter" x="-15.34" y="-15.3" width="230.64" height="230.64" filterUnits="userSpaceOnUse"><feOffset input="SourceAlpha"/><feGaussianBlur stdDeviation="8.85" result="blur"/><feFlood/><feComposite operator="in" in2="blur"/><feComposite in="SourceGraphic"/></filter></defs><g id="Layer_1" data-name="Layer 1"><circle class="cls-1" cx="100" cy="100" r="85"/><path class="cls-2" d="M76.25,98.34V73.21c0-2.24.91-3.44,2.59-3.47s2.67,1.22,2.67,3.55V98.22h51.16c0-1.83.1-3.68,0-5.5-.11-1.48-1.28-2.24-3.11-2.24H104.76c-2.79,0-5.58,0-8.36,0-2,0-2.77.74-3.08,2.65-.27,1.7-1.35,2.69-2.82,2.58a2.71,2.71,0,0,1-2.42-3.13,7.78,7.78,0,0,1,7.49-7.33q17.46-.1,34.94,0a7.73,7.73,0,0,1,7.43,7.37,9,9,0,0,1,0,1.47c-.26,2.51-.16,4.51,2.91,5.64,2.45.9,3.62,3.48,3.63,6.17q.07,21.33,0,42.65c0,4.31-3.6,7.54-8.1,7.54q-20.26,0-40.52,0H74.38c-5.43,0-8.63-3.23-8.63-8.7v-40c0-6,3-9,8.94-9Zm17,45.95a17.06,17.06,0,1,0-17-17A17.09,17.09,0,0,0,93.24,144.29Zm31.86-3.94c2.13,0,4.27,0,6.4,0a2.62,2.62,0,1,0-.05-5.22q-6.48,0-13,0a2.61,2.61,0,0,0-2.84,2.55,2.65,2.65,0,0,0,2.89,2.67C120.72,140.38,122.91,140.35,125.1,140.35Zm-.28-21c2.08,0,4.16,0,6.24,0,1.8,0,2.94-1.07,2.95-2.61a2.65,2.65,0,0,0-2.94-2.62q-6.24,0-12.47,0c-1.81,0-2.94,1.06-2.95,2.61s1.15,2.59,2.94,2.62C120.67,119.37,122.75,119.35,124.82,119.35Zm-.07,10.5c2.14,0,4.27,0,6.4,0a2.62,2.62,0,1,0,0-5.22q-6.31,0-12.64,0a2.62,2.62,0,1,0,0,5.22C120.6,129.88,122.67,129.85,124.75,129.85Z"/><path class="cls-2" d="M93.36,115.41a11.82,11.82,0,1,1-11.85,11.74A11.84,11.84,0,0,1,93.36,115.41Z"/><path class="cls-2" d="M78.19,49.46A5.12,5.12,0,1,1,86,56.11c-2.18,2.33-4.48,4.55-6.75,6.79a1.33,1.33,0,0,1-2.16-.08c-2.18-2.16-4.37-4.32-6.52-6.52a5.11,5.11,0,0,1,7.2-7.25Z"/><path class="cls-2" d="M55.46,54.8a22.93,22.93,0,0,1,2.35-10.13c.28-.58.56-1,1.34-.64,1.36.69,1.5.89,1.05,1.85a19.81,19.81,0,0,0,0,17.68c.44,1,.3,1.15-1.07,1.84-.78.39-1.06-.07-1.34-.65A22.86,22.86,0,0,1,55.46,54.8Z"/><path class="cls-2" d="M100.88,54.64a22.92,22.92,0,0,1-2.35,10.12c-.28.58-.57,1-1.34.63-1.37-.68-1.5-.88-1-1.84a19.81,19.81,0,0,0,0-17.68c-.44-.95-.3-1.15,1.07-1.84.79-.39,1.06.08,1.34.65A22.9,22.9,0,0,1,100.88,54.64Z"/><path class="cls-2" d="M61.49,54.71a16.49,16.49,0,0,1,1.61-7.18c.25-.53.52-.92,1.22-.6,1.32.62,1.58.93,1.21,1.73a13.92,13.92,0,0,0,0,12.13.8.8,0,0,1-.4,1.23,6.85,6.85,0,0,0-.69.4c-.63.41-1,.17-1.32-.45A16.85,16.85,0,0,1,61.49,54.71Z"/><path class="cls-2" d="M94.85,54.75a16.42,16.42,0,0,1-1.58,7.09c-.26.55-.52,1-1.26.65-1.36-.64-1.56-.91-1.15-1.81a14,14,0,0,0,0-11.9c-.41-.93-.25-1.16,1.11-1.83.8-.39,1,.12,1.31.69A16.54,16.54,0,0,1,94.85,54.75Z"/></g></svg>