<svg xmlns="http://www.w3.org/2000/svg" xmlns:xlink="http://www.w3.org/1999/xlink" viewBox="0 0 200 200"><defs><style>.cls-1{fill:#f4978e;stroke:#fff;stroke-miterlimit:10;stroke-width:7.08px;filter:url(#filter);}.cls-2{fill:#fff;}</style><filter id="filter" x="-15.26" y="-15.98" width="232" height="232" filterUnits="userSpaceOnUse"><feOffset input="SourceAlpha"/><feGaussianBlur stdDeviation="8.85" result="blur"/><feFlood/><feComposite operator="in" in2="blur"/><feComposite in="SourceGraphic"/></filter></defs><g id="Layer_1" data-name="Layer 1"><circle class="cls-1" cx="100" cy="100" r="85"/><path class="cls-2" d="M148.42,66.59H101.6c-3.21,0-4.56.87-4.62,2.94s1.36,3.1,4.65,3.1h46.2L148,73c-.48.23-.94.49-1.43.67-14.72,5.51-29.44,11-44.2,16.44a7.24,7.24,0,0,1-4.62,0c-15.52-5.68-31-11.5-46.47-17.27-1.53-.57-2.9-1.28-3-3.14S49.5,67,51,66.43L85.36,53.49c4.21-1.59,8.4-3.26,12.65-4.73a5.54,5.54,0,0,1,3.48-.12c15.36,5.71,30.68,11.52,46,17.32A8.11,8.11,0,0,1,148.42,66.59Z"/><path class="cls-2" d="M93.21,145.86a160.74,160.74,0,0,0-34.73,5.52c-2.89.78-5.13-.73-6.77-3-3.34-4.56-3.85-9.8-3.24-15.21a16.49,16.49,0,0,1,3.29-8.76c2-2.46,4.36-3.63,7.62-2.71A147,147,0,0,0,92.19,127c.25,0,.5.08,1,.16A20.4,20.4,0,0,0,93.21,145.86Z"/><path class="cls-2" d="M133.13,85.14c0,3.5.17,6.73,0,9.94-.21,3-2.22,5.11-4.56,6.83a33.2,33.2,0,0,1-13.14,5.4c-12.49,2.63-24.86,2.36-37-1.79a35.32,35.32,0,0,1-4.22-1.89C69,101,66,97.15,66.58,91.06c.18-1.86,0-3.75,0-5.94.89.28,1.56.46,2.21.7,9.51,3.56,19,7.1,28.5,10.72a6.87,6.87,0,0,0,5.25,0c9.42-3.6,18.86-7.11,28.3-10.65C131.55,85.64,132.25,85.43,133.13,85.14Z"/><path class="cls-2" d="M129.84,148.53c-4.29-.61-8.33-1.3-12.38-1.75-4.74-.51-9.5-.85-14.26-1.18a5.79,5.79,0,0,1-5.2-3.84,13.33,13.33,0,0,1,0-10.6,6.13,6.13,0,0,1,5.62-3.89c8.67-.76,17.34-1.65,26.06-2.5A31.43,31.43,0,0,0,129.84,148.53Z"/><path class="cls-2" d="M133.48,136.56A21.8,21.8,0,0,1,136,125.88c1.46-2.57,3.46-4.55,6.65-4.53s5.18,1.9,6.47,4.47a22.76,22.76,0,0,1,0,21.31c-1.29,2.57-3.38,4.45-6.48,4.46s-5.19-2-6.64-4.55A21.67,21.67,0,0,1,133.48,136.56Z"/><path class="cls-2" d="M151.67,78.21V95.88c0,5.25,0,10.5,0,15.75,0,2.06-1.18,3.34-2.95,3.38s-3.09-1.26-3.1-3.43c0-9.89,0-19.78,0-29.67a1.76,1.76,0,0,1,1.44-2C148.49,79.45,149.91,78.86,151.67,78.21Z"/></g></svg>