<svg xmlns="http://www.w3.org/2000/svg" xmlns:xlink="http://www.w3.org/1999/xlink" viewBox="0 0 200 200"><defs><style>.cls-1{fill:#f4978e;stroke:#fff;stroke-miterlimit:10;stroke-width:7.08px;filter:url(#filter);}.cls-2{fill:#fff;}</style><filter id="filter" x="-15.26" y="-15.98" width="232" height="232" filterUnits="userSpaceOnUse"><feOffset input="SourceAlpha"/><feGaussianBlur stdDeviation="8.85" result="blur"/><feFlood/><feComposite operator="in" in2="blur"/><feComposite in="SourceGraphic"/></filter></defs><g id="Layer_1" data-name="Layer 1"><circle class="cls-1" cx="100" cy="100" r="85"/><path class="cls-2" d="M76.11,117.46c-1.76-2.34-3.42-4.31-4.83-6.45-3.62-5.48-6.15-11.35-6-18.1a25.12,25.12,0,0,1,27-24.5l3.28.26c.71-7.46,3.89-13.52,10.28-17.63a20.84,20.84,0,0,1,11.52-3.37v8.54c-7.21.83-11.69,4.67-13,12,3,0,5.86-.35,8.55.06,16.21,2.45,25.68,18.14,20.46,33.67a40.09,40.09,0,0,1-8,13.64c-.4.46-.78.93-1.16,1.4,0,0,0,.13,0,.37h28V126c-5.38,1.1-8.31,4-8.5,8.38-.2,4.86,2.21,7.54,8.66,9.48,0,2.34,0,4.72,0,7.1,0,.39,0,.79-.07,1.36H150q-44.15,0-88.28,0c-8.53,0-14-5.51-14-14.08,0-2.59,0-5.18,0-7.77a13,13,0,0,1,12.81-13c2.58-.07,5.17,0,7.76,0Zm-2.18,26h63.2l-1.73-4.3H113.22v-8.6h22.2c.56-1.48,1.07-2.86,1.6-4.27H73.93Z"/></g></svg>