<svg xmlns="http://www.w3.org/2000/svg" xmlns:xlink="http://www.w3.org/1999/xlink" viewBox="0 0 200 200"><defs><style>.cls-1,.cls-3{fill:#f4978e;}.cls-1{stroke:#fff;stroke-miterlimit:10;stroke-width:7.08px;filter:url(#filter);}.cls-2{fill:#fff;}</style><filter id="filter" x="-15.26" y="-15.98" width="232" height="232" filterUnits="userSpaceOnUse"><feOffset input="SourceAlpha"/><feGaussianBlur stdDeviation="8.85" result="blur"/><feFlood/><feComposite operator="in" in2="blur"/><feComposite in="SourceGraphic"/></filter></defs><g id="Layer_1" data-name="Layer 1"><circle class="cls-1" cx="100" cy="100" r="85"/><path class="cls-2" d="M68.46,123.63c-13.18,6.68-30-2-32.38-16.56-1.42-8.68,1-16.51,5.83-23.63C49,73,59,66,70.15,60.43a2.32,2.32,0,0,1,1.79,0c11.87,5.9,22.48,13.35,29.47,25,4.33,7.19,6.34,15,4.24,23.34-3.21,12.8-17.36,20.55-29.25,15.92-8-3.12-12.33-9.23-13-17.83-.09-1.15-.12-2.37-1.61-2.33s-1.54,1.27-1.47,2.42a23,23,0,0,0,7.39,16C67.93,123,68.13,123.27,68.46,123.63Z"/><path class="cls-2" d="M73.13,127.4c3.43.52,6.92,1.17,10.44,1.52a13.1,13.1,0,0,0,4.94-.5,4.42,4.42,0,0,1,4.61,1,54.65,54.65,0,0,0,6.93,4.42c1,.59,2.36,1.42,3.15-.15s-.71-2-1.76-2.57c-2.36-1.35-4.67-2.79-7.13-4.27l7.64-5.3a26.39,26.39,0,0,1,8.63,14c.11.44-.68,1.41-1.25,1.66a28.69,28.69,0,0,1-22.59.34A30.83,30.83,0,0,1,73.13,127.4Z"/><path class="cls-2" d="M68.94,127.15A30.45,30.45,0,0,1,49,139.36a29.12,29.12,0,0,1-16.17-2c-1.23-.49-1.63-1.07-1.21-2.44a28,28,0,0,1,8.54-13.33l7.66,5.31c-2.55,1.52-5,3-7.46,4.41-1,.56-2.13,1-1.48,2.4s1.83,1,2.8.35c2.81-1.75,5.57-3.59,8.38-5.36.49-.32,1.17-.77,1.62-.65A28.22,28.22,0,0,0,68.94,127.15Z"/><path class="cls-3" d="M69.05,95.55a12.34,12.34,0,0,1-11.52-7.9c-.21-.58-.25-1.17.32-1.49a1.6,1.6,0,0,1,1.25,0c.31.13.51.6.66,1A9.76,9.76,0,0,0,66.84,93a9.86,9.86,0,0,0,11.22-5.83l.14-.36c.35-.8,1-1.11,1.62-.81s.8.9.49,1.69a11.69,11.69,0,0,1-2.86,4.36A12.14,12.14,0,0,1,69.05,95.55Z"/><path class="cls-3" d="M71.5,79.38a4.81,4.81,0,0,1,4.83-4.54,4.89,4.89,0,0,1,4.79,4.62,1.16,1.16,0,0,1-1.05,1.33c-.69,0-1.12-.35-1.24-1.15a2.57,2.57,0,0,0-2.34-2.49,2.53,2.53,0,0,0-2.56,1.67,3.59,3.59,0,0,0-.14.74c-.13.86-.56,1.28-1.26,1.23S71.46,80.25,71.5,79.38Z"/><path class="cls-3" d="M66.38,79.32c0,.93-.34,1.4-1,1.47s-1.18-.36-1.31-1.26a2.52,2.52,0,0,0-5,.06,1.15,1.15,0,0,1-.88,1.18c-.85.19-1.5-.45-1.4-1.42a4.68,4.68,0,0,1,3.09-4.17,4.61,4.61,0,0,1,5,1A4.52,4.52,0,0,1,66.38,79.32Z"/><path class="cls-2" d="M138,114.87c-9.56,4.84-21.77-1.47-23.49-12-1-6.29.73-12,4.22-17.14,5.14-7.61,12.4-12.7,20.5-16.7a1.68,1.68,0,0,1,1.3,0c8.61,4.28,16.32,9.69,21.39,18.11C165,92.31,166.47,98,165,104c-2.33,9.29-12.6,14.91-21.23,11.55-5.83-2.26-8.95-6.7-9.44-12.94-.07-.84-.08-1.72-1.17-1.69s-1.12.92-1.07,1.76a16.63,16.63,0,0,0,5.37,11.57C137.57,114.43,137.71,114.61,138,114.87Z"/><path class="cls-2" d="M141.34,117.6c2.49.38,5,.85,7.58,1.11a9.42,9.42,0,0,0,3.58-.37,3.23,3.23,0,0,1,3.35.75,41,41,0,0,0,5,3.22c.73.42,1.72,1,2.29-.12s-.52-1.42-1.28-1.86c-1.72-1-3.39-2-5.17-3.1l5.54-3.85a19.27,19.27,0,0,1,6.27,10.18c.07.32-.5,1-.91,1.2a20.81,20.81,0,0,1-16.4.25A22.38,22.38,0,0,1,141.34,117.6Z"/><path class="cls-2" d="M138.3,117.42a22.08,22.08,0,0,1-14.46,8.86,21.2,21.2,0,0,1-11.74-1.45c-.89-.36-1.18-.78-.88-1.78a20.41,20.41,0,0,1,6.2-9.67l5.56,3.85c-1.85,1.1-3.61,2.19-5.41,3.2-.73.41-1.55.75-1.08,1.74s1.33.7,2,.26c2-1.27,4-2.61,6.08-3.9.36-.22.85-.56,1.18-.47A20.48,20.48,0,0,0,138.3,117.42Z"/><path class="cls-3" d="M139.74,86h7.89c1.07,0,1.33.28,1.3,1.35a9.19,9.19,0,0,1-18.37-.11c0-.93.27-1.23,1.23-1.24Zm7.21,1.9H132.54a7.26,7.26,0,0,0,14.41,0Z"/><path class="cls-3" d="M133.57,80a3.85,3.85,0,0,1,2.65,1,.94.94,0,1,1-1.2,1.43,2,2,0,0,0-2.87,0A.93.93,0,1,1,131,81,3.77,3.77,0,0,1,133.57,80Z"/><path class="cls-3" d="M146,80a3.79,3.79,0,0,1,2.55,1,.93.93,0,1,1-1.19,1.43,2,2,0,0,0-2.91,0,.93.93,0,1,1-1.22-1.41A3.94,3.94,0,0,1,146,80Z"/></g></svg>