<svg xmlns="http://www.w3.org/2000/svg" xmlns:xlink="http://www.w3.org/1999/xlink" viewBox="0 0 200 200"><defs><style>.cls-1{fill:#f4978e;stroke:#fff;stroke-miterlimit:10;stroke-width:7.08px;filter:url(#filter);}.cls-2{fill:#fff;}</style><filter id="filter" x="-15.26" y="-15.3" width="230.64" height="230.64" filterUnits="userSpaceOnUse"><feOffset input="SourceAlpha"/><feGaussianBlur stdDeviation="8.85" result="blur"/><feFlood/><feComposite operator="in" in2="blur"/><feComposite in="SourceGraphic"/></filter></defs><g id="Layer_1" data-name="Layer 1"><circle class="cls-1" cx="100" cy="100" r="85"/><path class="cls-2" d="M76.37,102.32c3-2.75,6.11-5.48,9.11-8.28A5.13,5.13,0,0,0,87,91.86c4.63-16.26,15.45-26,31.54-30.44,6.53-1.79,12.86-4.15,18.25-8.39a66.15,66.15,0,0,0,5.41-5.44,8.53,8.53,0,0,1,1.64-1,5.38,5.38,0,0,1,.92,1.66,44.89,44.89,0,0,1-1.36,17.56c-.41,1.56-1.14,2.11-2.84,1.87a3.23,3.23,0,0,0-2.75,1.09,3.08,3.08,0,0,0,.51,2.89c1.74,1.72,1.39,3.09.16,4.88-6.31,9.16-15.21,14.63-25.65,17.49-6.4,1.76-13.06,2.57-19.63,3.64-1.53.25-2.82.6-3.72,1.87a8.66,8.66,0,0,1-9.12,3.83,19.82,19.82,0,0,0-3.27,0Z"/><path class="cls-2" d="M77.94,153.43H58.31c-2.6,0-3.37-.76-3.38-3.35,0-6,0-12,0-18,0-4.42,2.06-6.88,6.41-8,3.31-.84,6.63-1.63,9.24-4.08a3,3,0,0,1,1.75-.4c2.15,0,4.31,0,6.47,0,3.27,0,6.46-.3,9.39,2.18,1.67,1.41,4.34,1.7,6.61,2.31,4.06,1.09,6.14,3.32,6.23,7.49.13,6.26.07,12.53,0,18.79,0,2.23-.85,3-3.09,3C91.3,153.44,84.62,153.43,77.94,153.43Z"/><path class="cls-2" d="M78.06,115.83c-3.27,0-6.54,0-9.81,0-2.25,0-3-.77-3.11-3-.29-5.51,0-5.85,5.44-5.85H87.27c3,0,3.57.59,3.6,3.48,0,5.36,0,5.36-5.3,5.36Z"/></g></svg>