<svg xmlns="http://www.w3.org/2000/svg" xmlns:xlink="http://www.w3.org/1999/xlink" viewBox="0 0 200 200"><defs><style>.cls-1{fill:#f4978e;stroke:#fff;stroke-miterlimit:10;stroke-width:7.08px;filter:url(#filter);}.cls-2{fill:#fff;}</style><filter id="filter" x="-15.26" y="-15.98" width="232" height="232" filterUnits="userSpaceOnUse"><feOffset input="SourceAlpha"/><feGaussianBlur stdDeviation="8.85" result="blur"/><feFlood/><feComposite operator="in" in2="blur"/><feComposite in="SourceGraphic"/></filter></defs><g id="Layer_1" data-name="Layer 1"><circle class="cls-1" cx="100" cy="100" r="85"/><path class="cls-2" d="M98.4,80.56c-4.92,0-9.65.06-14.38,0-1.66,0-2.43.35-2.8,2.16-1.2,5.93-2.64,11.81-4,17.71a9.68,9.68,0,0,1-.32.92H69.36c-8.47,0-13.08,3.15-16.17,11-7.8-4.24-15.33-17-12.16-30.58a29.71,29.71,0,0,1,29.41-23.2C83.51,58.74,96,68.43,98.4,80.56ZM73.32,71.15h-6.9v13.6h-9v6.77H73.32Z"/><path class="cls-2" d="M66.78,133.82H57.6V120.14l1.93-.34c1.51-6.23,3.84-8.08,10.1-8.08q39.27,0,78.53,0c6.42,0,8.52,1.77,9.43,8.1l2.12.3V133.8H150.3c-.46-5-2.48-9.31-6.93-12.15a14.18,14.18,0,0,0-9.11-2.16c-7,.59-11.39,5.19-13.39,14.28a5.62,5.62,0,0,1-1.05.17c-7.3,0-14.6,0-21.9,0-1.31,0-1.89-.3-2.08-1.74a14.29,14.29,0,0,0-14.19-12.81c-7.24-.07-13.13,4.93-14.48,12.29C67.05,132.4,66.92,133.07,66.78,133.82Z"/><path class="cls-2" d="M105,104.62H83.5c1.1-4.91,2.3-9.63,3.16-14.41.41-2.27,1.39-2.8,3.55-2.72,4.87.16,9.74.05,14.75.05Z"/><path class="cls-2" d="M112.18,104.73V87.54h9.95c5.19,0,5.18,0,6.9,5,1.36,3.95,2.73,7.89,4.22,12.22H112.18Z"/><path class="cls-2" d="M81.53,126.42A7.39,7.39,0,0,1,89,134a7.54,7.54,0,0,1-7.4,7.46A7.66,7.66,0,0,1,74,133.94,7.55,7.55,0,0,1,81.53,126.42Z"/><path class="cls-2" d="M143.13,133.94a7.57,7.57,0,0,1-7.6,7.51,7.67,7.67,0,0,1-7.45-7.69,7.56,7.56,0,0,1,7.53-7.34A7.42,7.42,0,0,1,143.13,133.94Z"/></g></svg>