<svg xmlns="http://www.w3.org/2000/svg" xmlns:xlink="http://www.w3.org/1999/xlink" viewBox="0 0 200 200"><defs><style>.cls-1{fill:#f4978e;stroke:#fff;stroke-miterlimit:10;stroke-width:7.08px;filter:url(#filter);}.cls-2{fill:#fff;}</style><filter id="filter" x="-15.26" y="-15.98" width="232" height="232" filterUnits="userSpaceOnUse"><feOffset input="SourceAlpha"/><feGaussianBlur stdDeviation="8.85" result="blur"/><feFlood/><feComposite operator="in" in2="blur"/><feComposite in="SourceGraphic"/></filter></defs><g id="Layer_1" data-name="Layer 1"><circle class="cls-1" cx="100" cy="100" r="85"/><path class="cls-2" d="M123.35,145.39c.41-3.44.63-6.52,1.22-9.54a5.64,5.64,0,0,1,2.12-2.77c14.79-11.73,21-27,17.16-45.43-3.78-18-15.29-29.62-33.18-34.31C82.27,45.9,54,68.86,55.18,98.24c.56,14.29,6.61,25.79,17.91,34.48a6.31,6.31,0,0,1,2.78,5.11c.14,2.44.52,4.88.8,7.41-17.83-4.47-32.93-31.3-30.47-54.31,2.88-26.86,25.48-47.57,53-48.25,25.46-.62,49.62,18.68,54.07,43.81C157.62,111.1,143.8,138.66,123.35,145.39Z"/><path class="cls-2" d="M102.42,107.76c10.39,3,14.74,9.15,13.71,19.58-.71,7.18-1.63,14.35-2.65,21.5-.74,5.26-4.12,8.2-9.46,8.41a78.94,78.94,0,0,1-9-.1c-4.19-.32-7.43-2.81-8-6.9-1.34-8.76-2.66-17.56-3.18-26.4-.47-7.86,4.79-13.47,13.62-16-9.35-4.5-12.76-10-10.88-17.44a13.92,13.92,0,0,1,27.1.69C115,98.65,111.34,104.21,102.42,107.76Z"/><path class="cls-2" d="M125.67,121c-.12-.45-.17-.65-.23-.85-1-3-2.82-6-2.8-9s2.36-5.66,3-8.63c2.24-10.81-1-19.93-9.79-26.56S97.26,68.58,87.6,73.81,73.24,87.34,74,98.27c.25,3.69,1.94,7.28,2.84,11a7.49,7.49,0,0,1,.11,3.64c-.73,2.67-1.77,5.25-2.67,7.82-7-4.07-11.57-19.91-8.91-31.69,3.35-14.8,16.38-26.35,31-27.48,16.48-1.27,30.91,7.45,36.75,22.21C138.23,96.73,135,113.5,125.67,121Z"/></g></svg>