<svg id="Layer_2" data-name="Layer 2" xmlns="http://www.w3.org/2000/svg" xmlns:xlink="http://www.w3.org/1999/xlink" viewBox="0 0 380 137.74"><defs><style>.cls-1{fill:#939598;}.cls-2{fill:#f4978e;}.cls-3{fill:url(#linear-gradient);}.cls-4{fill:url(#linear-gradient-2);}.cls-5{fill:url(#linear-gradient-3);}.cls-6{fill:url(#linear-gradient-4);}.cls-7{fill:url(#linear-gradient-5);}.cls-8{fill:url(#linear-gradient-6);}.cls-9{fill:url(#linear-gradient-7);}</style><linearGradient id="linear-gradient" x1="94.98" y1="56.15" x2="188.38" y2="56.15" gradientUnits="userSpaceOnUse"><stop offset="0.01" stop-color="#c95404"/><stop offset="0.32" stop-color="#f0f"/><stop offset="0.68" stop-color="#37a7ff"/><stop offset="0.81" stop-color="#1ed0ff"/><stop offset="0.93" stop-color="#08f2ff"/><stop offset="1" stop-color="aqua"/></linearGradient><linearGradient id="linear-gradient-2" x1="94.08" y1="55.56" x2="187.99" y2="55.56" xlink:href="#linear-gradient"/><linearGradient id="linear-gradient-3" x1="94.33" y1="52.94" x2="187.83" y2="52.94" xlink:href="#linear-gradient"/><linearGradient id="linear-gradient-4" x1="93.72" y1="52.33" x2="188.51" y2="52.33" xlink:href="#linear-gradient"/><linearGradient id="linear-gradient-5" x1="93.59" y1="47.04" x2="186.76" y2="47.04" xlink:href="#linear-gradient"/><linearGradient id="linear-gradient-6" x1="93.91" y1="38.14" x2="187.41" y2="38.14" xlink:href="#linear-gradient"/><linearGradient id="linear-gradient-7" x1="94.49" y1="59.14" x2="185.62" y2="59.14" xlink:href="#linear-gradient"/></defs><path class="cls-1" d="M13.77,74.67A4.61,4.61,0,0,1,18.37,70H19a4.76,4.76,0,0,1,5.22,4.12,5.23,5.23,0,0,1,0,.56V107.9a4.61,4.61,0,0,1-4.59,4.69H19a4.77,4.77,0,0,1-5.23-4.11,5.61,5.61,0,0,1,0-.58Z"/><path class="cls-2" d="M62.44,112.85C47,112.85,34,106,34,97.88c0-1.77.53-5.89,5.41-5.89,2.46,0,4,1.46,6.44,4.05,3.24,3.39,7.27,7.61,15.83,7.61,7.49,0,12.7-3.64,12.7-8.86,0-6.1-4.89-7.35-11.08-8.93l-11.83-3C41,80.2,34,76.12,34,64.82c0-14,13.76-19,25.55-19,14.12,0,26.05,5.66,26.05,12.36v.12a5.79,5.79,0,0,1-5.29,6.2H80c-2.42,0-3.79-1.27-5.69-3-2.71-2.51-6.09-5.64-13.35-5.64-10.94,0-12.57,4.91-12.57,7.83,0,6.14,5.8,7.4,11.4,8.62l7.64,1.81C78,76.59,88.75,80.73,88.75,92.34c0,14.11-13.64,20.53-26.31,20.53Z"/><path class="cls-2" d="M158.05,93.38c0,6,3.89,10.34,10.5,10.34,8.54,0,8.54-5.6,13.14-5.6a4.68,4.68,0,0,1,4.66,4.43c0,6.84-11,10-17.79,10-15.86,0-21.84-10.73-21.84-20.6,0-13.21,8-22.07,21.45-22.07s20.51,9.25,20.51,18.57c0,3.89-1.16,4.9-5,4.9l-25.62,0ZM178,86.85c-.62-5.21-4.51-9-9.56-9-5.67,0-9.09,3.5-10.34,9Z"/><path class="cls-2" d="M205.14,93.38c0,6,3.88,10.34,10.5,10.34,8.53,0,8.53-5.6,13.13-5.6a4.67,4.67,0,0,1,4.66,4.43c0,6.84-11,10-17.79,10-15.87,0-21.84-10.73-21.84-20.6,0-13.21,8-22.07,21.45-22.07s20.5,9.25,20.5,18.57c0,3.89-1.16,4.9-5,4.9ZM225,86.85c-.62-5.21-4.51-9-9.56-9-5.67,0-9.08,3.5-10.33,9Z"/><path class="cls-2" d="M262.64,69.91c9.48,0,16.54,5.36,16.54,10.64,0,3.27-2.41,4.9-5.28,4.9-5.37,0-3.42-6.68-11.57-6.68-4.43,0-9.65,3-9.65,13.29,0,7.07,3.34,11.66,9.56,11.66,7.93,0,6.22-7.31,12.2-7.31a4.49,4.49,0,0,1,4.78,4.18v.17c0,5-5.58,11.82-17.25,11.82-14,0-20.6-8.63-20.6-20.52-.05-13.06,7.34-22.15,21.25-22.15Z"/><path class="cls-2" d="M285.24,60.27c0-3.73,2.26-5.67,5.67-5.67s5.68,1.94,5.68,5.67V75.89h.15a15.28,15.28,0,0,1,12.67-6c6.84,0,14.3,3.42,14.3,14.92V106.9c0,3-1.24,5.68-5.68,5.68s-5.67-2.65-5.67-5.68V87.08c0-4.58-2.26-7.85-7.15-7.85a8.8,8.8,0,0,0-8.6,9v18.7c0,3-1.25,5.68-5.67,5.68s-5.71-2.65-5.71-5.68V60.27Z"/><path class="cls-2" d="M347.86,100.68H348L354.93,75c.78-2.88,2.32-5,5.44-5A5.54,5.54,0,0,1,366.24,75a10.73,10.73,0,0,1-.86,3.57l-13.14,37.23c-2.72,7.77-5.83,11.81-13,11.81-5.05,0-7.15-2.48-7.15-5.2,0-3,2.18-4.59,5.21-4.59h1.16c1.48,0,3.1-.08,4-3.57L330.6,80.63c-.93-2.72-1.4-4-1.4-5.28a5.44,5.44,0,0,1,5.42-5.44h.1a5.69,5.69,0,0,1,5.83,4.29l7.31,26.48Z"/><path class="cls-2" d="M118.24,115.49a22.81,22.81,0,1,1,22.81-22.8A22.8,22.8,0,0,1,118.24,115.49Zm0-35.09a12.29,12.29,0,1,0,12.29,12.29h0A12.3,12.3,0,0,0,118.24,80.4Z"/><path class="cls-2" d="M100.53,131.83a5.08,5.08,0,0,1-5.09-5.07h0V94.4a5.09,5.09,0,1,1,10.17,0v32.35a5.07,5.07,0,0,1-5.07,5.08Z"/><circle class="cls-1" cx="18.96" cy="57.03" r="5.2"/><path class="cls-3" d="M187.87,70.65C187.33,69.52,186.53,69,186,69h0l-.47,0a2.18,2.18,0,0,1-1.58-.22c-1.37-.79-2.68-3.15-3.05-3.86s-.6-1.22-.89-1.83a29.68,29.68,0,0,0-1.37-2.7,9.36,9.36,0,0,0-5.11-4.34,2.62,2.62,0,0,0-2,.17c-.14.08-.27.18-.4.27a2.93,2.93,0,0,1-.9.51c-1.74.53-4.49-1.48-6-3.65a22.3,22.3,0,0,1-2.52-5.12c-.21-.53-.41-1.05-.63-1.57a9.18,9.18,0,0,0-1.86-3,4.79,4.79,0,0,0-3.46-1.44h0a5.24,5.24,0,0,0-3.65,1.47,14.18,14.18,0,0,0-2.51,3.87,26.46,26.46,0,0,1-1.44,2.59c-1.33,2-4,4.22-7.21,3.78-3-.42-4.79-3.06-5.46-5.39-.05-.2-.1-.4-.16-.6-.33-1.26-.68-2.57-1.78-3.14-1.55-.81-3.79.39-5.1,1.93a21.45,21.45,0,0,0-1.89,2.77,24.64,24.64,0,0,1-1.67,2.54c-1.43,1.81-3.78,3.46-5.56,3.09a3.56,3.56,0,0,1-1.6-1,4.29,4.29,0,0,0-.9-.67c-1.5-.77-4.24.74-5.53,3-.21.36-.39.74-.56,1.11a11.08,11.08,0,0,1-.94,1.71,10.62,10.62,0,0,1-3,2.65A11.77,11.77,0,0,0,104,64.26a15.53,15.53,0,0,0-1,1.37c-.26.39-.53.79-.82,1.17a7.4,7.4,0,0,1-4.26,2.93A4.19,4.19,0,0,1,95,68.82l.31-.48a3.57,3.57,0,0,0,2.54.83,6.69,6.69,0,0,0,3.89-2.72c.28-.36.54-.76.8-1.14s.66-1,1-1.42a12.21,12.21,0,0,1,2.86-2.36A9.87,9.87,0,0,0,109.3,59a10.24,10.24,0,0,0,.89-1.63c.18-.37.37-.76.58-1.14,1.46-2.58,4.52-4.16,6.29-3.26a4.53,4.53,0,0,1,1,.76,3,3,0,0,0,1.35.83c1.51.31,3.7-1.24,5-2.88a25.91,25.91,0,0,0,1.64-2.48A21.09,21.09,0,0,1,128,46.37c1.45-1.71,4-3,5.79-2.06,1.33.68,1.72,2.18,2.07,3.49.05.2.11.4.16.59.61,2.16,2.25,4.6,5,5,2.93.41,5.41-1.64,6.65-3.53a23.24,23.24,0,0,0,1.41-2.53,15.21,15.21,0,0,1,2.62-4,5.84,5.84,0,0,1,4-1.63h0a5.37,5.37,0,0,1,3.86,1.6,10,10,0,0,1,2,3.23c.22.53.42,1,.63,1.58a22.47,22.47,0,0,0,2.45,5c1.44,2,4,3.87,5.41,3.43a2.34,2.34,0,0,0,.73-.42,4.4,4.4,0,0,1,.45-.3,3.15,3.15,0,0,1,2.43-.23,9.92,9.92,0,0,1,5.46,4.6c.53.89,1,1.84,1.4,2.75.28.6.56,1.21.88,1.81a10,10,0,0,0,2.82,3.62,1.64,1.64,0,0,0,1.22.16,5.14,5.14,0,0,1,.55-.06,3,3,0,0,1,2.37,2Z"/><path class="cls-4" d="M187.77,70.58a3.4,3.4,0,0,0-2.92-1.24c-1.53-.07-3.1-.14-4.74-4.21a23,23,0,0,1-.88-2.8c-.1-.37-.2-.74-.31-1.11a11.12,11.12,0,0,0-1.77-3.8A5.58,5.58,0,0,0,172,55.18c-2.58.14-5.28,0-7.38-3.19a17.38,17.38,0,0,1-1.71-3.75,19.43,19.43,0,0,0-1.26-3c-1.45-2.58-4.58-4.95-7.1-4.28a6.26,6.26,0,0,0-2.67,1.75c-.86.82-1.7,1.74-2.59,2.72A36.29,36.29,0,0,1,144.6,50,5,5,0,0,1,140.89,51a3.61,3.61,0,0,1-2.43-1.6,10.09,10.09,0,0,1-1.06-2.26c-.11-.29-.22-.59-.34-.87a4.5,4.5,0,0,0-2-2.53,4.9,4.9,0,0,0-3.52,0c-3.13,1-4.66,3.07-6.44,5.48-.37.51-.75,1-1.16,1.56-1.36,1.76-3.63,3.58-5.5,2.89a4.84,4.84,0,0,1-1.6-1.13l-.4-.37a2.51,2.51,0,0,0-2.21-.74c-1.62.34-3.09,2.38-3.64,3.24-.42.64-.81,1.32-1.18,2a29.8,29.8,0,0,1-1.63,2.67c-1.06,1.47-2.6,2.93-3.71,2.93H104a2.29,2.29,0,0,1-.65-.15,1.08,1.08,0,0,0-1.44.33,5.31,5.31,0,0,0-.69,1.16c-.06.13-.12.26-.19.39a8.7,8.7,0,0,1-3.93,4,3.62,3.62,0,0,1-3-.2l.1-.27a3.37,3.37,0,0,0,2.78.2,8.42,8.42,0,0,0,3.78-3.83c.06-.12.12-.25.19-.38a5,5,0,0,1,.72-1.23,1.37,1.37,0,0,1,1.75-.41A2.49,2.49,0,0,0,104,62H104c1,0,2.5-1.45,3.48-2.82a29.12,29.12,0,0,0,1.61-2.64c.38-.66.77-1.35,1.19-2,.57-.89,2.1-3,3.82-3.36a2.8,2.8,0,0,1,2.45.8l.42.38a4.47,4.47,0,0,0,1.5,1.07c1.62.6,3.77-1,5.18-2.8.4-.52.78-1,1.15-1.55,1.81-2.45,3.36-4.57,6.58-5.58a5.22,5.22,0,0,1,3.73.05,4.84,4.84,0,0,1,2.18,2.67c.12.29.23.58.34.88a10.24,10.24,0,0,0,1,2.2,3.33,3.33,0,0,0,2.25,1.48,4.64,4.64,0,0,0,3.49-1,35.09,35.09,0,0,0,4.68-4.53c.89-1,1.73-1.9,2.61-2.73a6.52,6.52,0,0,1,2.78-1.82c2.67-.7,5.93,1.75,7.42,4.43a19.07,19.07,0,0,1,1.29,3,16.82,16.82,0,0,0,1.68,3.69C167.07,55.15,170,55,172,54.9a5.81,5.81,0,0,1,5.36,2.35,11.28,11.28,0,0,1,1.83,3.89l.3,1.11a23.12,23.12,0,0,0,.87,2.77c1.57,3.9,3,4,4.49,4A3.7,3.7,0,0,1,188,70.4Z"/><path class="cls-5" d="M187.56,70.09a7.07,7.07,0,0,0-2.83-3.2,10.66,10.66,0,0,1-2.28-2,15.81,15.81,0,0,1-1.9-3.39l-.24-.51c-.64-1.38-2.94-6-5.72-6.92a4.59,4.59,0,0,0-2.32-.08,6.15,6.15,0,0,1-2,.06c-2.68-.45-5.66-3.48-7.31-6.1A39.81,39.81,0,0,1,160.51,43c-.52-1.18-1-2.4-1.68-3.56-.75-1.38-2-3.07-3.55-3.34S152.8,37,152.2,38a23.64,23.64,0,0,0-1.14,2.17A15.29,15.29,0,0,1,149,43.65a6.31,6.31,0,0,1-6.59,2c-1.51-.55-2.68-1.84-3.57-3.93-.14-.33-.27-.66-.4-1a10,10,0,0,0-2-3.49,3.64,3.64,0,0,0-4.82-.37,5.75,5.75,0,0,0-1.14,1.54c-1.15,1.95-2.3,3.95-3.42,6a19.63,19.63,0,0,1-3.95,5.41c-1.76,1.52-4.37,2.49-5.69,1.47a4.12,4.12,0,0,1-1.07-1.77c-.34-.86-.66-1.68-1.52-1.77-1.19-.12-2.71,1.31-3.65,2.58a17.29,17.29,0,0,0-2.52,4.76c-.1.28-.18.56-.27.84a11.62,11.62,0,0,1-1.09,2.68,4,4,0,0,1-2.2,1.88.62.62,0,0,1-.52-.18,1.67,1.67,0,0,1-.29-.87c0-.33-.1-.67-.29-.73-.51-.17-1.52,1.23-2.07,2.58s-1.3,2.92-2.14,3.34a1.28,1.28,0,0,1-.62.12.86.86,0,0,0-.28,0c-.59.11-1.37.93-2.06,1.66l-.27.29c-.85.87-1.48,1.28-1.88,1.21a.47.47,0,0,1-.36-.31l.27-.11a.19.19,0,0,0,.14.14c.27.06.89-.37,1.62-1.13l.28-.29a5.6,5.6,0,0,1,2.2-1.74,2.24,2.24,0,0,1,.34,0h0a.9.9,0,0,0,.47-.09c.87-.43,1.63-2.29,2-3.19s1.41-2.77,2.26-2.77l.16,0c.37.12.43.55.49,1a1.53,1.53,0,0,0,.21.71.29.29,0,0,0,.29.09,3.73,3.73,0,0,0,2-1.73,11.88,11.88,0,0,0,1.06-2.63c.09-.28.17-.56.27-.85A17.54,17.54,0,0,1,111,50.13c1-1.33,2.47-2.7,3.74-2.7h.17c1,.11,1.4,1,1.76,2a3.68,3.68,0,0,0,1,1.64c1.2.93,3.65,0,5.33-1.46a19.12,19.12,0,0,0,3.88-5.33c1.13-2,2.28-4,3.42-6a6.15,6.15,0,0,1,1.2-1.6,3.94,3.94,0,0,1,5.21.37,10.06,10.06,0,0,1,2,3.59c.13.33.26.66.4,1a6.31,6.31,0,0,0,3.41,3.78,6,6,0,0,0,6.28-1.93,15.22,15.22,0,0,0,2-3.45c.36-.73.72-1.49,1.15-2.2.65-1,1.76-2.25,3.38-2s3,2,3.75,3.48c.63,1.17,1.17,2.4,1.69,3.58a39.17,39.17,0,0,0,2.45,4.89c1.61,2.58,4.53,5.54,7.12,6a6.22,6.22,0,0,0,1.89-.06,4.94,4.94,0,0,1,2.46.09c2.87,1,5.23,5.66,5.88,7.07l.24.51a15.85,15.85,0,0,0,1.86,3.33,10.67,10.67,0,0,0,2.22,2A7.34,7.34,0,0,1,187.83,70Z"/><path class="cls-6" d="M188.14,70.61l-.24-.21a17.55,17.55,0,0,1-5.07-6,18.12,18.12,0,0,1-.66-1.81c-.18-.55-.36-1.11-.6-1.66a16.36,16.36,0,0,0-3.06-4.31,14.79,14.79,0,0,0-3.21-2.87,7.6,7.6,0,0,0-3-.83,8.27,8.27,0,0,1-3.45-1c-2.31-1.35-3.81-4-4.5-5.54-.31-.69-.6-1.39-.88-2.07a22.63,22.63,0,0,0-1.94-4c-1.19-1.83-3.32-3.49-5.07-3.17-1.09.21-1.76,1.1-2.46,2.17s-1.57,2.41-2.37,3.63-1.67,2.44-3.17,2.8a6,6,0,0,1-5.19-1.86A14.59,14.59,0,0,1,141,40.64c-.22-.37-.43-.74-.65-1.1a19.27,19.27,0,0,0-3.6-4.26,2.1,2.1,0,0,0-1.28-.66h0a2.89,2.89,0,0,0-1.86,1.17,31.28,31.28,0,0,0-4,5.59l-.27.47c-1.47,2.61-3.13,5.57-6,6.55-3,1.06-5.14-1-6-3l-.13-.3c-.88-2-1.64-3.46-3.36-2.85-1.87.68-3.31,3.46-4,5.83l-.15.5c-.65,2.19-1.38,4.67-3.11,6.53-.23.25-.47.47-.71.7a11.21,11.21,0,0,0-1,1.06A12.48,12.48,0,0,0,103.52,59l-.36.7c-2.46,4.46-7.12,9-9.44,8.07l.2-.53c1.61.61,6-2.94,8.74-7.82.12-.22.24-.45.35-.68a13.31,13.31,0,0,1,1.32-2.21,11.47,11.47,0,0,1,1.06-1.12c.24-.22.47-.44.69-.68,1.64-1.76,2.35-4.17,3-6.3l.15-.5c.37-1.22,1.77-5.26,4.38-6.2,2.35-.83,3.35,1.47,4.07,3.16l.13.3c.83,1.9,2.67,3.61,5.32,2.69s4.26-3.77,5.68-6.29l.26-.47a31.65,31.65,0,0,1,4.12-5.7,3.38,3.38,0,0,1,2.34-1.34,2.61,2.61,0,0,1,1.63.8,19.42,19.42,0,0,1,3.71,4.39c.23.37.44.74.66,1.12a14.35,14.35,0,0,0,2.18,3.1,5.38,5.38,0,0,0,4.66,1.7c1.29-.3,2.08-1.38,2.83-2.55L153.54,39a4.73,4.73,0,0,1,2.84-2.41c2-.38,4.35,1.43,5.65,3.42a23.35,23.35,0,0,1,2,4.09c.27.67.56,1.36.87,2a12.28,12.28,0,0,0,4.27,5.29,7.87,7.87,0,0,0,3.23,1,8.18,8.18,0,0,1,3.19.89,15.36,15.36,0,0,1,3.35,3,17,17,0,0,1,3.16,4.47c.25.58.44,1.16.62,1.72s.38,1.16.64,1.75A17,17,0,0,0,188.27,70l.24.21Z"/><path class="cls-7" d="M186.4,69.33a27.26,27.26,0,0,1-6.15-8.17,43.07,43.07,0,0,1-3.46-9.39c-.45-1.74-1-3.52-2.19-4.58a2,2,0,0,0-1.51-.6,2.52,2.52,0,0,0-1.62,1.06c-.67.87-1.8,2.32-3.7,1.49-1.62-.7-2.91-2.66-3.82-5.81a105.8,105.8,0,0,0-5.73-15.27,5,5,0,0,0-2-2.56,2,2,0,0,0-2.33.49,5.78,5.78,0,0,0-1,2.22l0,.18a37.36,37.36,0,0,1-3.33,8.19,5.16,5.16,0,0,1-1.46,1.82c-2.06,1.43-5.56.14-7.2-1.92a14.25,14.25,0,0,1-2.13-4.62c-.22-.69-.45-1.41-.73-2.09A3.67,3.67,0,0,0,137,28.16c-1.23-.95-3.35-.3-4.57.89a12.54,12.54,0,0,0-2.45,4.17l-.19.43A68.8,68.8,0,0,1,126,41.1a7.07,7.07,0,0,1-1.89,2.33,5.07,5.07,0,0,1-3.48.78A7,7,0,0,1,114.44,40l-.08-.21c-.29-.74-.52-1.23-1-1.25a3.38,3.38,0,0,0-2.2,1.81,10.37,10.37,0,0,0-1,3q-.77,3.6-1.52,7.21c-.39,1.83-1.1,4.45-2.87,6a7.9,7.9,0,0,1-1.18.82,7.5,7.5,0,0,0-.88.59,16.23,16.23,0,0,0-3.19,4.12c-.56.88-1.13,1.8-1.74,2.6-1.61,2.12-3.83,3.92-5.15,3.2l.27-.5c.85.47,2.75-.84,4.43-3,.59-.79,1.16-1.69,1.7-2.56a16.7,16.7,0,0,1,3.33-4.27,8.35,8.35,0,0,1,.93-.62,9.63,9.63,0,0,0,1.11-.77c1.64-1.43,2.31-3.92,2.68-5.68q.75-3.61,1.53-7.21a10.81,10.81,0,0,1,1.06-3.18c.6-1.05,1.7-2.09,2.67-2.09h0c.93,0,1.26.91,1.54,1.61l.08.21c.88,2.2,2.9,3.56,5.68,3.82a4.41,4.41,0,0,0,3.1-.68,6.5,6.5,0,0,0,1.73-2.15,67.59,67.59,0,0,0,3.75-7.38l.18-.44A12.83,12.83,0,0,1,132,28.65c1.38-1.36,3.8-2.11,5.31-.94a4.13,4.13,0,0,1,1.25,1.85c.28.7.52,1.42.74,2.13a13.89,13.89,0,0,0,2,4.44c1.48,1.86,4.61,3.06,6.43,1.81A4.64,4.64,0,0,0,149,36.3a36.68,36.68,0,0,0,3.28-8.06l.05-.18a6.16,6.16,0,0,1,1.07-2.44,2.56,2.56,0,0,1,3-.64,5.47,5.47,0,0,1,2.3,2.84,106.91,106.91,0,0,1,5.76,15.35c.86,3,2,4.82,3.5,5.45s2.22-.28,3-1.32A3.07,3.07,0,0,1,173,46a2.56,2.56,0,0,1,1.95.73c1.33,1.17,1.89,3,2.36,4.86a42.3,42.3,0,0,0,3.41,9.27,26.87,26.87,0,0,0,6,8Z"/><path class="cls-8" d="M187.27,70.36c-2.33-1.3-5.27-5.82-7-9.62-.78-1.76-1.41-3.51-2-5.21a57.54,57.54,0,0,0-2.4-6,8.91,8.91,0,0,0-2.91-3.8,3.71,3.71,0,0,0-2.69-.35,4.33,4.33,0,0,1-2.77-.27c-2.23-1.08-3.35-4.14-3.82-5.87-1.22-4.46-2.08-8.9-2.91-13.2-.77-4-1.57-8.13-2.65-12.2,0-.16-.1-.4-.17-.7-.42-1.8-1.55-6.6-3.06-6.94-.37-.08-.76.13-1.16.63-1.06,1.33-1.35,3.21-1.63,5-.12.76-.24,1.55-.42,2.27q-1.57,6.38-3.15,12.82A3.12,3.12,0,0,1,147,29.39a3.23,3.23,0,0,1-3.5-1.42,7.89,7.89,0,0,1-1-2.65c-.06-.27-.13-.54-.2-.81a12.12,12.12,0,0,0-3.86-6A5.13,5.13,0,0,0,134.35,17c-1.89.35-3.27,2.12-4.25,3.62a47.71,47.71,0,0,0-5.63,12.1l-.18.58a14.88,14.88,0,0,1-2.38,5.3,6.75,6.75,0,0,1-4,2.51,1.76,1.76,0,0,1-1.39-.36,3.39,3.39,0,0,1-.81-2.09c0-.22-.07-.45-.11-.66a2,2,0,0,0-.8-1.35,1.07,1.07,0,0,0-.9-.06,4.13,4.13,0,0,0-2.1,2.69,8.31,8.31,0,0,0-.19,2.34c0,.24,0,.47,0,.71a19.75,19.75,0,0,1-3,9.49A67.94,67.94,0,0,1,102.64,60l-.75.91c-3.35,4.08-6.27,7.41-8,7l.06-.28a.93.93,0,0,0,.24,0c1.76,0,5-4,7.46-6.94l.74-.91a67.14,67.14,0,0,0,5.9-8.07,19.8,19.8,0,0,0,3-9.35c0-.24,0-.47,0-.7a7.89,7.89,0,0,1,.2-2.42,4.33,4.33,0,0,1,2.29-2.89,1.35,1.35,0,0,1,1.12.08,2.25,2.25,0,0,1,.93,1.54c.05.22.09.45.12.68a3.23,3.23,0,0,0,.72,1.92,1.5,1.5,0,0,0,1.17.29,6.49,6.49,0,0,0,3.86-2.4A14.81,14.81,0,0,0,124,33.26l.17-.59a47.87,47.87,0,0,1,5.67-12.16c1-1.55,2.44-3.38,4.44-3.75a5.34,5.34,0,0,1,4.31,1.49,12.55,12.55,0,0,1,3.95,6.19c.07.27.13.54.2.81a7.62,7.62,0,0,0,1,2.56,3,3,0,0,0,3.16,1.31c.88-.35,1.18-1.33,1.4-2.23q1.59-6.45,3.15-12.82c.18-.71.29-1.46.42-2.25.29-1.85.58-3.77,1.69-5.16.47-.59,1-.84,1.44-.73,1.48.34,2.49,3.81,3.28,7.16l.17.69C159.5,17.85,160.3,22,161.07,26c.83,4.3,1.69,8.74,2.9,13.18.46,1.69,1.54,4.66,3.67,5.69a4.14,4.14,0,0,0,2.61.25,4,4,0,0,1,2.88.39,9.16,9.16,0,0,1,3,3.91,61.3,61.3,0,0,1,2.4,6c.61,1.69,1.24,3.45,2,5.19,1.68,3.76,4.57,8.22,6.85,9.49Z"/><path class="cls-9" d="M102.85,71.08a7.67,7.67,0,0,1-2.24-.4,46.35,46.35,0,0,1-6.12-2.24l.12-.26a46.61,46.61,0,0,0,6.08,2.23,5.58,5.58,0,0,0,4.16,0,13.48,13.48,0,0,0,6.52-7.57c.1-.37.19-.76.28-1.13A6.62,6.62,0,0,1,113.37,58a2.27,2.27,0,0,1,2-.64,2.9,2.9,0,0,1,1.88,1.74l.22.55c.48,1.22,1,2.49,2.31,2.54h.08c1.5,0,3.26-1.55,4.28-3,.41-.6.77-1.24,1.12-1.85a15.85,15.85,0,0,1,1.93-2.87,7.24,7.24,0,0,1,5.3-2.36h0a5.34,5.34,0,0,1,4.05,1.64,10.36,10.36,0,0,1,1.62,2.68A10.6,10.6,0,0,0,139.81,59a7.12,7.12,0,0,0,5.05,2.17H145a4.16,4.16,0,0,0,2.79-.86,4.57,4.57,0,0,0,1.14-2.07c.17-.49.33-1,.49-1.48,1.1-3.42,2.24-7,5.12-8.91a3.08,3.08,0,0,1,2.59-.58,4.84,4.84,0,0,1,2.09,1.41,24.44,24.44,0,0,1,3.37,4.82c.54.92,1.1,1.87,1.71,2.77,1.76,2.55,4.56,5.09,6.59,5.09H171a3.6,3.6,0,0,0,1.29-.4l.39-.17c3.74-1.58,9.32,1.82,13,7.91l-.24.14c-3.58-6-9-9.31-12.62-7.79l-.39.17a3.78,3.78,0,0,1-1.38.42h-.13c-2.22,0-5.08-2.67-6.82-5.21-.62-.91-1.18-1.86-1.72-2.78A24.62,24.62,0,0,0,159,48.89,4.63,4.63,0,0,0,157,47.57a2.8,2.8,0,0,0-2.36.54c-2.8,1.9-3.93,5.38-5,8.75-.16.5-.32,1-.49,1.49A4.94,4.94,0,0,1,148,60.54a4.43,4.43,0,0,1-3,.94h-.12a7.4,7.4,0,0,1-5.25-2.27A10.77,10.77,0,0,1,138,56.52a10.07,10.07,0,0,0-1.57-2.61,5.06,5.06,0,0,0-3.84-1.54h0a6.94,6.94,0,0,0-5.09,2.26,15.6,15.6,0,0,0-1.89,2.82c-.35.62-.72,1.26-1.14,1.88-1.09,1.57-2.89,3.13-4.51,3.13h-.09c-1.52-.05-2.08-1.47-2.57-2.72L117,59.2a2.59,2.59,0,0,0-1.68-1.57,2,2,0,0,0-1.8.57,6.34,6.34,0,0,0-1.63,3.54c-.09.38-.18.77-.29,1.15A13.73,13.73,0,0,1,105,70.64,5.43,5.43,0,0,1,102.85,71.08Z"/></svg>